<mxfile host="65bd71144e">
    <diagram id="VyVBkAhcJYfxzhglDCHS" name="Page-1">
        <mxGraphModel dx="1074" dy="822" grid="1" gridSize="10" guides="1" tooltips="1" connect="1" arrows="1" fold="1" page="1" pageScale="1" pageWidth="827" pageHeight="1169" math="0" shadow="0">
            <root>
                <mxCell id="0"/>
                <mxCell id="1" parent="0"/>
                <mxCell id="92" value="5V" style="text;html=1;align=center;verticalAlign=middle;resizable=0;points=[];autosize=1;strokeColor=none;fillColor=none;" vertex="1" parent="1">
                    <mxGeometry x="742.5" y="540" width="30" height="20" as="geometry"/>
                </mxCell>
                <mxCell id="93" value="-" style="text;html=1;align=center;verticalAlign=middle;resizable=0;points=[];autosize=1;strokeColor=none;fillColor=none;" vertex="1" parent="1">
                    <mxGeometry x="737.5" y="580" width="20" height="20" as="geometry"/>
                </mxCell>
                <mxCell id="94" value="+" style="text;html=1;align=center;verticalAlign=middle;resizable=0;points=[];autosize=1;strokeColor=none;fillColor=none;" vertex="1" parent="1">
                    <mxGeometry x="737.5" y="510" width="20" height="20" as="geometry"/>
                </mxCell>
                <mxCell id="95" value="Output" style="text;html=1;align=center;verticalAlign=middle;resizable=0;points=[];autosize=1;strokeColor=none;fillColor=none;" vertex="1" parent="1">
                    <mxGeometry x="377.5" y="1100" width="50" height="20" as="geometry"/>
                </mxCell>
                <mxCell id="96" style="edgeStyle=none;rounded=0;orthogonalLoop=1;jettySize=auto;html=1;exitX=0;exitY=0.5;exitDx=0;exitDy=0;entryX=1;entryY=0.5;entryDx=0;entryDy=0;entryPerimeter=0;endArrow=none;endFill=0;" edge="1" parent="1" source="97" target="104">
                    <mxGeometry relative="1" as="geometry">
                        <Array as="points">
                            <mxPoint x="707.5" y="660"/>
                            <mxPoint x="707.5" y="1065"/>
                        </Array>
                        <mxPoint x="617.5" y="659.9" as="targetPoint"/>
                    </mxGeometry>
                </mxCell>
                <mxCell id="97" value="" style="pointerEvents=1;verticalLabelPosition=bottom;shadow=0;dashed=0;align=center;html=1;verticalAlign=top;shape=mxgraph.electrical.miscellaneous.batteryStack;rotation=-90;" vertex="1" parent="1">
                    <mxGeometry x="657.5" y="530" width="100" height="60" as="geometry"/>
                </mxCell>
                <mxCell id="98" style="edgeStyle=none;rounded=0;orthogonalLoop=1;jettySize=auto;html=1;exitX=1;exitY=0.885;exitDx=0;exitDy=0;exitPerimeter=0;endArrow=none;endFill=0;entryX=1;entryY=0.885;entryDx=0;entryDy=0;entryPerimeter=0;" edge="1" parent="1" source="101" target="108">
                    <mxGeometry relative="1" as="geometry">
                        <Array as="points">
                            <mxPoint x="597.5" y="580"/>
                            <mxPoint x="597.5" y="707"/>
                        </Array>
                        <mxPoint x="597.5" y="650" as="targetPoint"/>
                    </mxGeometry>
                </mxCell>
                <mxCell id="99" style="edgeStyle=none;html=1;exitX=1;exitY=0.115;exitDx=0;exitDy=0;exitPerimeter=0;endArrow=none;endFill=0;strokeColor=#FF0000;entryX=1;entryY=0.5;entryDx=0;entryDy=0;" edge="1" parent="1" source="101" target="97">
                    <mxGeometry relative="1" as="geometry">
                        <mxPoint x="572.5" y="510" as="targetPoint"/>
                        <Array as="points">
                            <mxPoint x="572.5" y="510"/>
                        </Array>
                    </mxGeometry>
                </mxCell>
                <mxCell id="100" style="edgeStyle=none;html=1;exitX=0;exitY=0.885;exitDx=0;exitDy=0;exitPerimeter=0;entryX=0;entryY=0.75;entryDx=0;entryDy=0;entryPerimeter=0;strokeColor=#00FF00;endArrow=none;endFill=0;" edge="1" parent="1" source="101" target="121">
                    <mxGeometry relative="1" as="geometry"/>
                </mxCell>
                <mxCell id="101" value="" style="pointerEvents=1;verticalLabelPosition=bottom;shadow=0;dashed=0;align=center;html=1;verticalAlign=top;shape=mxgraph.electrical.electro-mechanical.2-way_switch;rotation=0;" vertex="1" parent="1">
                    <mxGeometry x="497.5" y="540" width="75" height="26" as="geometry"/>
                </mxCell>
                <mxCell id="102" style="edgeStyle=none;html=1;exitX=1;exitY=0.57;exitDx=0;exitDy=0;exitPerimeter=0;entryX=0;entryY=0.5;entryDx=0;entryDy=0;entryPerimeter=0;endArrow=none;endFill=0;" edge="1" parent="1" source="103" target="104">
                    <mxGeometry relative="1" as="geometry"/>
                </mxCell>
                <mxCell id="103" value="" style="verticalLabelPosition=bottom;shadow=0;dashed=0;align=center;html=1;verticalAlign=top;shape=mxgraph.electrical.opto_electronics.led_2;pointerEvents=1;rotation=0;" vertex="1" parent="1">
                    <mxGeometry x="327.5" y="1030" width="100" height="70" as="geometry"/>
                </mxCell>
                <mxCell id="104" value="" style="pointerEvents=1;verticalLabelPosition=bottom;shadow=0;dashed=0;align=center;html=1;verticalAlign=top;shape=mxgraph.electrical.resistors.resistor_2;" vertex="1" parent="1">
                    <mxGeometry x="452.5" y="1055" width="100" height="20" as="geometry"/>
                </mxCell>
                <mxCell id="105" value="220&lt;b style=&quot;color: rgb(32 , 33 , 36) ; font-family: &amp;#34;arial&amp;#34; , sans-serif ; font-size: 14px ; text-align: left ; background-color: rgb(255 , 255 , 255)&quot;&gt;Î©&lt;/b&gt;" style="text;html=1;align=center;verticalAlign=middle;resizable=0;points=[];autosize=1;strokeColor=none;fillColor=none;rotation=0;" vertex="1" parent="1">
                    <mxGeometry x="477.5" y="1090" width="50" height="20" as="geometry"/>
                </mxCell>
                <mxCell id="106" style="edgeStyle=none;html=1;exitX=1;exitY=0.115;exitDx=0;exitDy=0;exitPerimeter=0;endArrow=none;endFill=0;strokeColor=#FF0000;" edge="1" parent="1" source="108">
                    <mxGeometry relative="1" as="geometry">
                        <mxPoint x="587.5" y="510" as="targetPoint"/>
                        <Array as="points">
                            <mxPoint x="587.5" y="687"/>
                        </Array>
                    </mxGeometry>
                </mxCell>
                <mxCell id="107" style="edgeStyle=none;html=1;exitX=0;exitY=0.885;exitDx=0;exitDy=0;exitPerimeter=0;endArrow=none;endFill=0;strokeColor=#0000FF;entryX=0;entryY=0.25;entryDx=0;entryDy=0;entryPerimeter=0;" edge="1" parent="1" source="108" target="121">
                    <mxGeometry relative="1" as="geometry">
                        <mxPoint x="467.5" y="590" as="targetPoint"/>
                        <Array as="points">
                            <mxPoint x="462.5" y="707"/>
                        </Array>
                    </mxGeometry>
                </mxCell>
                <mxCell id="108" value="" style="pointerEvents=1;verticalLabelPosition=bottom;shadow=0;dashed=0;align=center;html=1;verticalAlign=top;shape=mxgraph.electrical.electro-mechanical.2-way_switch;rotation=0;" vertex="1" parent="1">
                    <mxGeometry x="497.5" y="684" width="75" height="26" as="geometry"/>
                </mxCell>
                <mxCell id="109" value="Input A" style="text;html=1;align=center;verticalAlign=middle;resizable=0;points=[];autosize=1;strokeColor=none;fillColor=none;" vertex="1" parent="1">
                    <mxGeometry x="510" y="510" width="50" height="20" as="geometry"/>
                </mxCell>
                <mxCell id="110" value="Input B" style="text;html=1;align=center;verticalAlign=middle;resizable=0;points=[];autosize=1;strokeColor=none;fillColor=none;" vertex="1" parent="1">
                    <mxGeometry x="532.5" y="657" width="50" height="20" as="geometry"/>
                </mxCell>
                <mxCell id="111" style="edgeStyle=none;html=1;exitX=0;exitY=0.25;exitDx=0;exitDy=0;exitPerimeter=0;endArrow=none;endFill=0;strokeColor=#FF8000;entryX=1;entryY=0.5;entryDx=0;entryDy=0;entryPerimeter=0;" edge="1" parent="1" source="113" target="121">
                    <mxGeometry relative="1" as="geometry">
                        <mxPoint x="357.5" y="590" as="targetPoint"/>
                    </mxGeometry>
                </mxCell>
                <mxCell id="112" style="edgeStyle=none;html=1;exitX=1;exitY=0.5;exitDx=0;exitDy=0;exitPerimeter=0;entryX=0;entryY=0.75;entryDx=0;entryDy=0;entryPerimeter=0;endArrow=none;endFill=0;strokeColor=#000000;" edge="1" parent="1" source="113" target="128">
                    <mxGeometry relative="1" as="geometry">
                        <Array as="points">
                            <mxPoint x="257.5" y="745"/>
                        </Array>
                    </mxGeometry>
                </mxCell>
                <mxCell id="113" value="" style="verticalLabelPosition=bottom;shadow=0;dashed=0;align=center;html=1;verticalAlign=top;shape=mxgraph.electrical.logic_gates.logic_gate;operation=and;flipH=1;" vertex="1" parent="1">
                    <mxGeometry x="264.5" y="715" width="100" height="60" as="geometry"/>
                </mxCell>
                <mxCell id="114" style="edgeStyle=none;html=1;exitX=1;exitY=0.5;exitDx=0;exitDy=0;exitPerimeter=0;entryX=0;entryY=0.57;entryDx=0;entryDy=0;entryPerimeter=0;endArrow=none;endFill=0;strokeColor=#000000;" edge="1" parent="1" source="118" target="103">
                    <mxGeometry relative="1" as="geometry">
                        <Array as="points">
                            <mxPoint x="117.5" y="647"/>
                            <mxPoint x="117.5" y="1070"/>
                        </Array>
                        <mxPoint x="87.5" y="650" as="sourcePoint"/>
                    </mxGeometry>
                </mxCell>
                <mxCell id="115" value="Sum" style="text;html=1;align=center;verticalAlign=middle;resizable=0;points=[];autosize=1;strokeColor=none;fillColor=none;" vertex="1" parent="1">
                    <mxGeometry x="187.5" y="588" width="40" height="20" as="geometry"/>
                </mxCell>
                <mxCell id="116" value="Carry Out" style="text;html=1;align=center;verticalAlign=middle;resizable=0;points=[];autosize=1;strokeColor=none;fillColor=none;" vertex="1" parent="1">
                    <mxGeometry x="172.5" y="780" width="70" height="20" as="geometry"/>
                </mxCell>
                <mxCell id="117" style="edgeStyle=none;html=1;exitX=0;exitY=0.25;exitDx=0;exitDy=0;exitPerimeter=0;endArrow=none;endFill=0;strokeColor=#00FFFF;" edge="1" parent="1" source="118">
                    <mxGeometry relative="1" as="geometry">
                        <mxPoint x="437.5" y="850" as="targetPoint"/>
                        <Array as="points">
                            <mxPoint x="437.5" y="662"/>
                        </Array>
                    </mxGeometry>
                </mxCell>
                <mxCell id="118" value="" style="verticalLabelPosition=bottom;shadow=0;dashed=0;align=center;html=1;verticalAlign=top;shape=mxgraph.electrical.logic_gates.logic_gate;operation=xor;rotation=-180;" vertex="1" parent="1">
                    <mxGeometry x="157.5" y="617" width="100" height="60" as="geometry"/>
                </mxCell>
                <mxCell id="119" style="edgeStyle=none;html=1;entryX=0;entryY=0.75;entryDx=0;entryDy=0;entryPerimeter=0;endArrow=none;endFill=0;strokeColor=#00FFFF;" edge="1" parent="1" target="113">
                    <mxGeometry relative="1" as="geometry">
                        <Array as="points">
                            <mxPoint x="364.5" y="850"/>
                        </Array>
                        <mxPoint x="707.5" y="850" as="sourcePoint"/>
                    </mxGeometry>
                </mxCell>
                <mxCell id="120" style="edgeStyle=none;html=1;exitX=1;exitY=0.5;exitDx=0;exitDy=0;exitPerimeter=0;entryX=0;entryY=0.75;entryDx=0;entryDy=0;entryPerimeter=0;endArrow=none;endFill=0;strokeColor=#FF8000;" edge="1" parent="1" source="121" target="118">
                    <mxGeometry relative="1" as="geometry">
                        <Array as="points">
                            <mxPoint x="362.5" y="632"/>
                        </Array>
                    </mxGeometry>
                </mxCell>
                <mxCell id="121" value="" style="verticalLabelPosition=bottom;shadow=0;dashed=0;align=center;html=1;verticalAlign=top;shape=mxgraph.electrical.logic_gates.logic_gate;operation=xor;rotation=-180;" vertex="1" parent="1">
                    <mxGeometry x="362.5" y="548" width="100" height="60" as="geometry"/>
                </mxCell>
                <mxCell id="122" style="edgeStyle=none;html=1;endArrow=none;endFill=0;strokeColor=#00FF00;" edge="1" parent="1">
                    <mxGeometry relative="1" as="geometry">
                        <mxPoint x="477.5" y="564" as="targetPoint"/>
                        <mxPoint x="477.5" y="951" as="sourcePoint"/>
                    </mxGeometry>
                </mxCell>
                <mxCell id="123" style="edgeStyle=none;html=1;exitX=0;exitY=0.75;exitDx=0;exitDy=0;exitPerimeter=0;endArrow=none;endFill=0;strokeColor=#0000FF;" edge="1" parent="1" source="126">
                    <mxGeometry relative="1" as="geometry">
                        <mxPoint x="495.5" y="708" as="targetPoint"/>
                        <mxPoint x="475.5" y="836" as="sourcePoint"/>
                        <Array as="points">
                            <mxPoint x="495.5" y="985"/>
                        </Array>
                    </mxGeometry>
                </mxCell>
                <mxCell id="124" style="edgeStyle=none;html=1;exitX=0;exitY=0.25;exitDx=0;exitDy=0;exitPerimeter=0;endArrow=none;endFill=0;strokeColor=#00FF00;" edge="1" parent="1" source="126">
                    <mxGeometry relative="1" as="geometry">
                        <mxPoint x="477.5" y="940" as="targetPoint"/>
                    </mxGeometry>
                </mxCell>
                <mxCell id="125" style="edgeStyle=none;html=1;exitX=1;exitY=0.5;exitDx=0;exitDy=0;exitPerimeter=0;entryX=0;entryY=0.25;entryDx=0;entryDy=0;entryPerimeter=0;endArrow=none;endFill=0;strokeColor=#000000;" edge="1" parent="1" source="126" target="128">
                    <mxGeometry relative="1" as="geometry">
                        <Array as="points">
                            <mxPoint x="257.5" y="970"/>
                        </Array>
                    </mxGeometry>
                </mxCell>
                <mxCell id="126" value="" style="verticalLabelPosition=bottom;shadow=0;dashed=0;align=center;html=1;verticalAlign=top;shape=mxgraph.electrical.logic_gates.logic_gate;operation=and;flipH=1;" vertex="1" parent="1">
                    <mxGeometry x="377.5" y="940" width="100" height="60" as="geometry"/>
                </mxCell>
                <mxCell id="127" style="edgeStyle=none;html=1;exitX=1;exitY=0.5;exitDx=0;exitDy=0;exitPerimeter=0;entryX=0;entryY=0.57;entryDx=0;entryDy=0;entryPerimeter=0;strokeColor=#006600;endArrow=none;endFill=0;" edge="1" parent="1" source="128" target="131">
                    <mxGeometry relative="1" as="geometry">
                        <Array as="points">
                            <mxPoint x="157.5" y="1180"/>
                        </Array>
                    </mxGeometry>
                </mxCell>
                <mxCell id="128" value="" style="verticalLabelPosition=bottom;shadow=0;dashed=0;align=center;html=1;verticalAlign=top;shape=mxgraph.electrical.logic_gates.logic_gate;operation=or;rotation=-180;" vertex="1" parent="1">
                    <mxGeometry x="157.5" y="810" width="100" height="60" as="geometry"/>
                </mxCell>
                <mxCell id="129" value="Output" style="text;html=1;align=center;verticalAlign=middle;resizable=0;points=[];autosize=1;strokeColor=none;fillColor=none;" vertex="1" parent="1">
                    <mxGeometry x="377.5" y="1210" width="50" height="20" as="geometry"/>
                </mxCell>
                <mxCell id="130" style="edgeStyle=none;html=1;exitX=1;exitY=0.57;exitDx=0;exitDy=0;exitPerimeter=0;entryX=0;entryY=0.5;entryDx=0;entryDy=0;entryPerimeter=0;endArrow=none;endFill=0;" edge="1" parent="1" source="131" target="133">
                    <mxGeometry relative="1" as="geometry"/>
                </mxCell>
                <mxCell id="131" value="" style="verticalLabelPosition=bottom;shadow=0;dashed=0;align=center;html=1;verticalAlign=top;shape=mxgraph.electrical.opto_electronics.led_2;pointerEvents=1;rotation=0;" vertex="1" parent="1">
                    <mxGeometry x="327.5" y="1140" width="100" height="70" as="geometry"/>
                </mxCell>
                <mxCell id="132" style="html=1;exitX=1;exitY=0.5;exitDx=0;exitDy=0;exitPerimeter=0;strokeColor=#006600;endArrow=none;endFill=0;" edge="1" parent="1" source="133">
                    <mxGeometry relative="1" as="geometry">
                        <mxPoint x="707.5" y="1060" as="targetPoint"/>
                        <Array as="points">
                            <mxPoint x="707.5" y="1175"/>
                        </Array>
                    </mxGeometry>
                </mxCell>
                <mxCell id="133" value="" style="pointerEvents=1;verticalLabelPosition=bottom;shadow=0;dashed=0;align=center;html=1;verticalAlign=top;shape=mxgraph.electrical.resistors.resistor_2;" vertex="1" parent="1">
                    <mxGeometry x="452.5" y="1165" width="100" height="20" as="geometry"/>
                </mxCell>
                <mxCell id="134" value="220&lt;b style=&quot;color: rgb(32 , 33 , 36) ; font-family: &amp;#34;arial&amp;#34; , sans-serif ; font-size: 14px ; text-align: left ; background-color: rgb(255 , 255 , 255)&quot;&gt;Î©&lt;/b&gt;" style="text;html=1;align=center;verticalAlign=middle;resizable=0;points=[];autosize=1;strokeColor=none;fillColor=none;rotation=0;" vertex="1" parent="1">
                    <mxGeometry x="477.5" y="1200" width="50" height="20" as="geometry"/>
                </mxCell>
                <mxCell id="135" value="5V" style="text;html=1;align=center;verticalAlign=middle;resizable=0;points=[];autosize=1;strokeColor=none;fillColor=none;" vertex="1" parent="1">
                    <mxGeometry x="675" y="1410" width="30" height="20" as="geometry"/>
                </mxCell>
                <mxCell id="136" value="-" style="text;html=1;align=center;verticalAlign=middle;resizable=0;points=[];autosize=1;strokeColor=none;fillColor=none;" vertex="1" parent="1">
                    <mxGeometry x="670" y="1450" width="20" height="20" as="geometry"/>
                </mxCell>
                <mxCell id="137" value="+" style="text;html=1;align=center;verticalAlign=middle;resizable=0;points=[];autosize=1;strokeColor=none;fillColor=none;" vertex="1" parent="1">
                    <mxGeometry x="670" y="1380" width="20" height="20" as="geometry"/>
                </mxCell>
                <mxCell id="138" value="Output" style="text;html=1;align=center;verticalAlign=middle;resizable=0;points=[];autosize=1;strokeColor=none;fillColor=none;" vertex="1" parent="1">
                    <mxGeometry x="310" y="1970" width="50" height="20" as="geometry"/>
                </mxCell>
                <mxCell id="139" style="edgeStyle=none;rounded=0;orthogonalLoop=1;jettySize=auto;html=1;exitX=0;exitY=0.5;exitDx=0;exitDy=0;entryX=1;entryY=0.5;entryDx=0;entryDy=0;entryPerimeter=0;endArrow=none;endFill=0;" edge="1" parent="1" source="140" target="147">
                    <mxGeometry relative="1" as="geometry">
                        <Array as="points">
                            <mxPoint x="640" y="1530"/>
                            <mxPoint x="640" y="1935"/>
                        </Array>
                        <mxPoint x="550" y="1529.9" as="targetPoint"/>
                    </mxGeometry>
                </mxCell>
                <mxCell id="140" value="" style="pointerEvents=1;verticalLabelPosition=bottom;shadow=0;dashed=0;align=center;html=1;verticalAlign=top;shape=mxgraph.electrical.miscellaneous.batteryStack;rotation=-90;" vertex="1" parent="1">
                    <mxGeometry x="590" y="1400" width="100" height="60" as="geometry"/>
                </mxCell>
                <mxCell id="141" style="edgeStyle=none;rounded=0;orthogonalLoop=1;jettySize=auto;html=1;exitX=1;exitY=0.885;exitDx=0;exitDy=0;exitPerimeter=0;endArrow=none;endFill=0;entryX=1;entryY=0.885;entryDx=0;entryDy=0;entryPerimeter=0;" edge="1" parent="1" source="144" target="151">
                    <mxGeometry relative="1" as="geometry">
                        <Array as="points">
                            <mxPoint x="530" y="1450"/>
                            <mxPoint x="530" y="1577"/>
                        </Array>
                        <mxPoint x="530" y="1520" as="targetPoint"/>
                    </mxGeometry>
                </mxCell>
                <mxCell id="142" style="edgeStyle=none;html=1;exitX=1;exitY=0.115;exitDx=0;exitDy=0;exitPerimeter=0;endArrow=none;endFill=0;strokeColor=#FF0000;entryX=1;entryY=0.5;entryDx=0;entryDy=0;" edge="1" parent="1" source="144" target="140">
                    <mxGeometry relative="1" as="geometry">
                        <mxPoint x="505" y="1380" as="targetPoint"/>
                        <Array as="points">
                            <mxPoint x="505" y="1380"/>
                        </Array>
                    </mxGeometry>
                </mxCell>
                <mxCell id="143" style="edgeStyle=none;html=1;exitX=0;exitY=0.885;exitDx=0;exitDy=0;exitPerimeter=0;entryX=0;entryY=0.75;entryDx=0;entryDy=0;entryPerimeter=0;strokeColor=#00FF00;endArrow=none;endFill=0;" edge="1" parent="1" source="144" target="165">
                    <mxGeometry relative="1" as="geometry"/>
                </mxCell>
                <mxCell id="144" value="" style="pointerEvents=1;verticalLabelPosition=bottom;shadow=0;dashed=0;align=center;html=1;verticalAlign=top;shape=mxgraph.electrical.electro-mechanical.2-way_switch;rotation=0;" vertex="1" parent="1">
                    <mxGeometry x="430" y="1410" width="75" height="26" as="geometry"/>
                </mxCell>
                <mxCell id="145" style="edgeStyle=none;html=1;exitX=1;exitY=0.57;exitDx=0;exitDy=0;exitPerimeter=0;entryX=0;entryY=0.5;entryDx=0;entryDy=0;entryPerimeter=0;endArrow=none;endFill=0;" edge="1" parent="1" source="146" target="147">
                    <mxGeometry relative="1" as="geometry"/>
                </mxCell>
                <mxCell id="146" value="" style="verticalLabelPosition=bottom;shadow=0;dashed=0;align=center;html=1;verticalAlign=top;shape=mxgraph.electrical.opto_electronics.led_2;pointerEvents=1;rotation=0;" vertex="1" parent="1">
                    <mxGeometry x="260" y="1900" width="100" height="70" as="geometry"/>
                </mxCell>
                <mxCell id="147" value="" style="pointerEvents=1;verticalLabelPosition=bottom;shadow=0;dashed=0;align=center;html=1;verticalAlign=top;shape=mxgraph.electrical.resistors.resistor_2;" vertex="1" parent="1">
                    <mxGeometry x="385" y="1925" width="100" height="20" as="geometry"/>
                </mxCell>
                <mxCell id="148" value="220&lt;b style=&quot;color: rgb(32 , 33 , 36) ; font-family: &amp;#34;arial&amp;#34; , sans-serif ; font-size: 14px ; text-align: left ; background-color: rgb(255 , 255 , 255)&quot;&gt;Î©&lt;/b&gt;" style="text;html=1;align=center;verticalAlign=middle;resizable=0;points=[];autosize=1;strokeColor=none;fillColor=none;rotation=0;" vertex="1" parent="1">
                    <mxGeometry x="410" y="1960" width="50" height="20" as="geometry"/>
                </mxCell>
                <mxCell id="149" style="edgeStyle=none;html=1;exitX=1;exitY=0.115;exitDx=0;exitDy=0;exitPerimeter=0;endArrow=none;endFill=0;strokeColor=#FF0000;" edge="1" parent="1" source="151">
                    <mxGeometry relative="1" as="geometry">
                        <mxPoint x="520" y="1380" as="targetPoint"/>
                        <Array as="points">
                            <mxPoint x="520" y="1557"/>
                        </Array>
                    </mxGeometry>
                </mxCell>
                <mxCell id="150" style="edgeStyle=none;html=1;exitX=0;exitY=0.885;exitDx=0;exitDy=0;exitPerimeter=0;endArrow=none;endFill=0;strokeColor=#0000FF;entryX=0;entryY=0.25;entryDx=0;entryDy=0;entryPerimeter=0;" edge="1" parent="1" source="151" target="165">
                    <mxGeometry relative="1" as="geometry">
                        <mxPoint x="400" y="1460" as="targetPoint"/>
                        <Array as="points">
                            <mxPoint x="395" y="1577"/>
                        </Array>
                    </mxGeometry>
                </mxCell>
                <mxCell id="151" value="" style="pointerEvents=1;verticalLabelPosition=bottom;shadow=0;dashed=0;align=center;html=1;verticalAlign=top;shape=mxgraph.electrical.electro-mechanical.2-way_switch;rotation=0;" vertex="1" parent="1">
                    <mxGeometry x="430" y="1554" width="75" height="26" as="geometry"/>
                </mxCell>
                <mxCell id="152" value="Input A" style="text;html=1;align=center;verticalAlign=middle;resizable=0;points=[];autosize=1;strokeColor=none;fillColor=none;" vertex="1" parent="1">
                    <mxGeometry x="442.5" y="1380" width="50" height="20" as="geometry"/>
                </mxCell>
                <mxCell id="153" value="Input B" style="text;html=1;align=center;verticalAlign=middle;resizable=0;points=[];autosize=1;strokeColor=none;fillColor=none;" vertex="1" parent="1">
                    <mxGeometry x="465" y="1527" width="50" height="20" as="geometry"/>
                </mxCell>
                <mxCell id="154" style="edgeStyle=none;html=1;exitX=0;exitY=0.25;exitDx=0;exitDy=0;exitPerimeter=0;endArrow=none;endFill=0;strokeColor=#FF8000;entryX=1;entryY=0.5;entryDx=0;entryDy=0;entryPerimeter=0;" edge="1" parent="1" source="156" target="165">
                    <mxGeometry relative="1" as="geometry">
                        <mxPoint x="290" y="1460" as="targetPoint"/>
                    </mxGeometry>
                </mxCell>
                <mxCell id="155" style="edgeStyle=none;html=1;exitX=1;exitY=0.5;exitDx=0;exitDy=0;exitPerimeter=0;entryX=0;entryY=0.75;entryDx=0;entryDy=0;entryPerimeter=0;endArrow=none;endFill=0;strokeColor=#000000;" edge="1" parent="1" source="156" target="172">
                    <mxGeometry relative="1" as="geometry">
                        <Array as="points">
                            <mxPoint x="190" y="1615"/>
                        </Array>
                    </mxGeometry>
                </mxCell>
                <mxCell id="156" value="" style="verticalLabelPosition=bottom;shadow=0;dashed=0;align=center;html=1;verticalAlign=top;shape=mxgraph.electrical.logic_gates.logic_gate;operation=and;flipH=1;" vertex="1" parent="1">
                    <mxGeometry x="197" y="1585" width="100" height="60" as="geometry"/>
                </mxCell>
                <mxCell id="157" style="edgeStyle=none;html=1;exitX=1;exitY=0.5;exitDx=0;exitDy=0;exitPerimeter=0;entryX=0;entryY=0.57;entryDx=0;entryDy=0;entryPerimeter=0;endArrow=none;endFill=0;strokeColor=#000000;" edge="1" parent="1" source="161" target="146">
                    <mxGeometry relative="1" as="geometry">
                        <Array as="points">
                            <mxPoint x="50" y="1517"/>
                            <mxPoint x="50" y="1940"/>
                        </Array>
                        <mxPoint x="20" y="1520" as="sourcePoint"/>
                    </mxGeometry>
                </mxCell>
                <mxCell id="158" value="Sum" style="text;html=1;align=center;verticalAlign=middle;resizable=0;points=[];autosize=1;strokeColor=none;fillColor=none;" vertex="1" parent="1">
                    <mxGeometry x="120" y="1458" width="40" height="20" as="geometry"/>
                </mxCell>
                <mxCell id="159" value="Carry Out" style="text;html=1;align=center;verticalAlign=middle;resizable=0;points=[];autosize=1;strokeColor=none;fillColor=none;" vertex="1" parent="1">
                    <mxGeometry x="105" y="1650" width="70" height="20" as="geometry"/>
                </mxCell>
                <mxCell id="160" style="edgeStyle=none;html=1;exitX=0;exitY=0.25;exitDx=0;exitDy=0;exitPerimeter=0;endArrow=none;endFill=0;strokeColor=#00FFFF;" edge="1" parent="1" source="161">
                    <mxGeometry relative="1" as="geometry">
                        <mxPoint x="370" y="1720" as="targetPoint"/>
                        <Array as="points">
                            <mxPoint x="370" y="1532"/>
                        </Array>
                    </mxGeometry>
                </mxCell>
                <mxCell id="161" value="" style="verticalLabelPosition=bottom;shadow=0;dashed=0;align=center;html=1;verticalAlign=top;shape=mxgraph.electrical.logic_gates.logic_gate;operation=xor;rotation=-180;" vertex="1" parent="1">
                    <mxGeometry x="90" y="1487" width="100" height="60" as="geometry"/>
                </mxCell>
                <mxCell id="162" style="edgeStyle=none;html=1;entryX=0;entryY=0.75;entryDx=0;entryDy=0;entryPerimeter=0;endArrow=none;endFill=0;strokeColor=#00FFFF;" edge="1" parent="1" target="156">
                    <mxGeometry relative="1" as="geometry">
                        <Array as="points">
                            <mxPoint x="707.5" y="1720"/>
                            <mxPoint x="297" y="1720"/>
                        </Array>
                        <mxPoint x="707.5" y="1170" as="sourcePoint"/>
                    </mxGeometry>
                </mxCell>
                <mxCell id="163" value="Carry In" style="text;html=1;align=center;verticalAlign=middle;resizable=0;points=[];autosize=1;strokeColor=none;fillColor=none;" vertex="1" parent="1">
                    <mxGeometry x="450" y="1670" width="60" height="20" as="geometry"/>
                </mxCell>
                <mxCell id="164" style="edgeStyle=none;html=1;exitX=1;exitY=0.5;exitDx=0;exitDy=0;exitPerimeter=0;entryX=0;entryY=0.75;entryDx=0;entryDy=0;entryPerimeter=0;endArrow=none;endFill=0;strokeColor=#FF8000;" edge="1" parent="1" source="165" target="161">
                    <mxGeometry relative="1" as="geometry">
                        <Array as="points">
                            <mxPoint x="295" y="1502"/>
                        </Array>
                    </mxGeometry>
                </mxCell>
                <mxCell id="165" value="" style="verticalLabelPosition=bottom;shadow=0;dashed=0;align=center;html=1;verticalAlign=top;shape=mxgraph.electrical.logic_gates.logic_gate;operation=xor;rotation=-180;" vertex="1" parent="1">
                    <mxGeometry x="295" y="1418" width="100" height="60" as="geometry"/>
                </mxCell>
                <mxCell id="166" style="edgeStyle=none;html=1;endArrow=none;endFill=0;strokeColor=#00FF00;" edge="1" parent="1">
                    <mxGeometry relative="1" as="geometry">
                        <mxPoint x="410" y="1434" as="targetPoint"/>
                        <mxPoint x="410" y="1821" as="sourcePoint"/>
                    </mxGeometry>
                </mxCell>
                <mxCell id="167" style="edgeStyle=none;html=1;exitX=0;exitY=0.75;exitDx=0;exitDy=0;exitPerimeter=0;endArrow=none;endFill=0;strokeColor=#0000FF;" edge="1" parent="1" source="170">
                    <mxGeometry relative="1" as="geometry">
                        <mxPoint x="428" y="1578" as="targetPoint"/>
                        <mxPoint x="408" y="1706" as="sourcePoint"/>
                        <Array as="points">
                            <mxPoint x="428" y="1855"/>
                        </Array>
                    </mxGeometry>
                </mxCell>
                <mxCell id="168" style="edgeStyle=none;html=1;exitX=0;exitY=0.25;exitDx=0;exitDy=0;exitPerimeter=0;endArrow=none;endFill=0;strokeColor=#00FF00;" edge="1" parent="1" source="170">
                    <mxGeometry relative="1" as="geometry">
                        <mxPoint x="410" y="1810" as="targetPoint"/>
                    </mxGeometry>
                </mxCell>
                <mxCell id="169" style="edgeStyle=none;html=1;exitX=1;exitY=0.5;exitDx=0;exitDy=0;exitPerimeter=0;entryX=0;entryY=0.25;entryDx=0;entryDy=0;entryPerimeter=0;endArrow=none;endFill=0;strokeColor=#000000;" edge="1" parent="1" source="170" target="172">
                    <mxGeometry relative="1" as="geometry">
                        <Array as="points">
                            <mxPoint x="190" y="1840"/>
                        </Array>
                    </mxGeometry>
                </mxCell>
                <mxCell id="170" value="" style="verticalLabelPosition=bottom;shadow=0;dashed=0;align=center;html=1;verticalAlign=top;shape=mxgraph.electrical.logic_gates.logic_gate;operation=and;flipH=1;" vertex="1" parent="1">
                    <mxGeometry x="310" y="1810" width="100" height="60" as="geometry"/>
                </mxCell>
                <mxCell id="171" style="edgeStyle=none;html=1;exitX=1;exitY=0.5;exitDx=0;exitDy=0;exitPerimeter=0;entryX=0;entryY=0.57;entryDx=0;entryDy=0;entryPerimeter=0;strokeColor=#006600;endArrow=none;endFill=0;" edge="1" parent="1" source="172" target="175">
                    <mxGeometry relative="1" as="geometry">
                        <Array as="points">
                            <mxPoint x="90" y="2050"/>
                        </Array>
                    </mxGeometry>
                </mxCell>
                <mxCell id="172" value="" style="verticalLabelPosition=bottom;shadow=0;dashed=0;align=center;html=1;verticalAlign=top;shape=mxgraph.electrical.logic_gates.logic_gate;operation=or;rotation=-180;" vertex="1" parent="1">
                    <mxGeometry x="90" y="1680" width="100" height="60" as="geometry"/>
                </mxCell>
                <mxCell id="173" value="Output" style="text;html=1;align=center;verticalAlign=middle;resizable=0;points=[];autosize=1;strokeColor=none;fillColor=none;" vertex="1" parent="1">
                    <mxGeometry x="310" y="2080" width="50" height="20" as="geometry"/>
                </mxCell>
                <mxCell id="174" style="edgeStyle=none;html=1;exitX=1;exitY=0.57;exitDx=0;exitDy=0;exitPerimeter=0;entryX=0;entryY=0.5;entryDx=0;entryDy=0;entryPerimeter=0;endArrow=none;endFill=0;" edge="1" parent="1" source="175" target="177">
                    <mxGeometry relative="1" as="geometry"/>
                </mxCell>
                <mxCell id="175" value="" style="verticalLabelPosition=bottom;shadow=0;dashed=0;align=center;html=1;verticalAlign=top;shape=mxgraph.electrical.opto_electronics.led_2;pointerEvents=1;rotation=0;" vertex="1" parent="1">
                    <mxGeometry x="260" y="2010" width="100" height="70" as="geometry"/>
                </mxCell>
                <mxCell id="176" style="edgeStyle=none;html=1;exitX=1;exitY=0.5;exitDx=0;exitDy=0;exitPerimeter=0;strokeColor=#006600;endArrow=none;endFill=0;" edge="1" parent="1" source="177">
                    <mxGeometry relative="1" as="geometry">
                        <mxPoint x="640" y="1930" as="targetPoint"/>
                        <Array as="points">
                            <mxPoint x="640" y="2045"/>
                        </Array>
                    </mxGeometry>
                </mxCell>
                <mxCell id="177" value="" style="pointerEvents=1;verticalLabelPosition=bottom;shadow=0;dashed=0;align=center;html=1;verticalAlign=top;shape=mxgraph.electrical.resistors.resistor_2;" vertex="1" parent="1">
                    <mxGeometry x="385" y="2035" width="100" height="20" as="geometry"/>
                </mxCell>
                <mxCell id="178" value="220&lt;b style=&quot;color: rgb(32 , 33 , 36) ; font-family: &amp;#34;arial&amp;#34; , sans-serif ; font-size: 14px ; text-align: left ; background-color: rgb(255 , 255 , 255)&quot;&gt;Î©&lt;/b&gt;" style="text;html=1;align=center;verticalAlign=middle;resizable=0;points=[];autosize=1;strokeColor=none;fillColor=none;rotation=0;" vertex="1" parent="1">
                    <mxGeometry x="410" y="2070" width="50" height="20" as="geometry"/>
                </mxCell>
                <mxCell id="179" value="Carry In" style="text;html=1;align=center;verticalAlign=middle;resizable=0;points=[];autosize=1;strokeColor=none;fillColor=none;" vertex="1" parent="1">
                    <mxGeometry x="527.5" y="800" width="60" height="20" as="geometry"/>
                </mxCell>
                <mxCell id="180" value="" style="shape=image;verticalLabelPosition=bottom;labelBackgroundColor=#ffffff;verticalAlign=top;aspect=fixed;imageAspect=0;image=data:image/png,iVBORw0KGgoAAAANSUhEUgAAAS8AAAGrCAIAAAAenYZBAAAgAElEQVR4nOy9Z5Bc2XWgee/zJr3PqsxyWb4KhYIt2AYaze5GG5HdzSabDFJDzgx3tdoIbYSkCCl2Y35MbCgmqD8rRYwiVtrQaFYSuZKGbJr2jTbohm+YQqGA8t6n9/ny+bs/HlANNlBAukIVpfp+MMgi3snz7rvnmnPOPRcihMAOO+ywDcC2WoEddtjhLjvWuMMO24Uda9xhh+3CjjXusMN2Yccad9hhu7BjjTvssF3412mNCCFFUQqFwk78ZoffIojH/ot0Ov0E9KgtCCFd11VVlWUZQrjV6uyww4bYbLb1//54a1xdXSUIgqZpkqKq/GFd1zVVBQDgBIFh1U7LiizrOiIpEoMY+IrFIYQQ0hHSNA38pjU+6qnyKRaLBI5X3zIIIU3VJEkkKQqDpbYMAgDpuqapNM1g+NYvcyRRxDCMIEiIbaMRUBRFDEKKprdakS9Buq4oCkKIoqjyrDEcDvM8b7c7aIatUglN0yRJAgCwOI5heJXSZFlRFIWkSAzHwMMM66E/8NinyiKfz3McV33L6Lqmamo6k7FYbARBlvgUQrqiKJIoUDRdfXtWjyAUSYoiSHI7KLOOIAgEQTAst9WKfImqI1EUdV2nfnMcf7w1IoRwHOd4zm63V6mEJIoQQACAxWKhGaZKaZqmypJksVgpiip9OVrZUxuRTqV4nq++ZVRVJYh8NpPjeJ6iSh3FNU1TJAnpqsViYaoeEapHKORphrFarSRZ7WKhhhTyOYIkq/9GNUSWJU1TNVW1Wq33//3JLm/We38t9nIQAADLNqjKnnqkuFqIgeuyypD45UO10qNq4Pp/bCMg3GYqGf3vwV649ZuNHXbYwWDHGnfYYbuwY4077LBd2LHGHXbYLjzep1oKuqaJQk5QEMeyHFupsxQhTZWi8aQgiBBCDCccDgfHMQRenrtcKgqZbFYoSjhJOR0OhqawksNfiizlMulMvqgjxDCs2Ww2m/iKXT6yWMxls6lcwRBAM6zJbLFZ+NIliEIhl88XiqIhgeVMJpOJY2sYOkOyJOdzmWxewAjSbDJbLGZ8i6KFCOmyUCgqiKQonmMAAKKQlxQdI0gzv/UeY1kSC/kcxVkZmtykJqqNNUpScWl2OpLXGxqCjQF/Zd0XISQX83Oz83lBtFpMAOmJVC4Q8Htc9hLlIV1XZXF+fi6XFzQdQAgTqWxjsM5mMZeoUrGQX1mYjeZUmqZokmBY1usP2K08SVQSQCtk06vLK8uJnM3EYRjGmSw4xdhAGdaYSydWI7GMoJg5GgBg0QFFMzW0RlEoxGOxlbUYwABAIMWZHC530O+ulfyyQLqeT8XWsqrFZjesMZ+KJ3IyxVu3gzUWC/mV+RlroMNlM7N0bQznK9RipYpQsVAYHxsdHRmNROOyplUqRlfF/MpqJJ0psDSN68ro2MRaOFp6pqmmypn42vjkbDKTJ0kCKdLY6HgimdZKzlYtCoW1pYV0QcJwQpGKq0sLY1PzxaJU2RsJuUw8GklmijTNcBzHsnS5Vp3NJBKJRKGosCzLsixNUXhNc25S8ejC3NxyNEmSNFLlaCQyt7iyVam9uqblU/HVtUginTP+kkvFw+FoPJXdIo1+A6GQX1mYT2ULiqZv0k/UwMR1TRaLQiSrOzhcV+Vktuh3mCqWRrO8zenq7u5UipnxmVVZFBEqNYIlFosz4yMmR11Lc0ODzyGKgihcwQBSVI2gSn1THMc9dcHW5joLhVaXl9/79Gpbk99s5ipbmtAM67W4OjrbGZqEsJJAJ8vxdlt9W1sQGIHSWqbdotXVtWyusO/gMb/DhCFldTWSTOd1BLDtFqH7t0ENrLGQzaQTcXtdU8iJC4q8uhr2O1orllbMZzOZLK4JhUyC5Ewmi6X0Jbqqqqlk0t7WxvM8ThAsy/fu2cNwJqq8GQliGIZjOM1SDMdDKa8omqYDoqI5qSgUFlfStJ4nCdLl8QQC9UzJ44JBIZeJpAQkJiFG+OrqPC4XXjNDQZKkaBqwmk0QaQVBxEnS5XZurR2mE7FUJiNlYwCA+PK8Qlo4h3dLNXpyVG+NKJVMLi8v04wXEFgiliAERe5sIYkK97kQgwTEKZrWWB4IBU1VNR2VKAwhpGkajmGYkeuAYRzL4QRR2XQCIYQYRLqGQOVrNwghQRAUSZEkQeB4BZpADMMJgiQpiOF41an2XwEhhADAIJCLQiwWjcaSECO9/jqyBjm8FQIxDCdII4GTIAltOyWgbzbVWqOuyql0Zi2a9DQ6CyJWyGUJWU3nik4rV5nfiaJZzmwNtTQrsrjy6Xkhn1e0Uq0Rx3GzxSIUhaIoahqtyPLy0rLD47FYrVg5E4pxIEsSi0VBwGi+Miu69zq002VubGqgKZKiaKL8XR/DcDzvbmyshxBSNF1Te4Q0TeE4SGeyVkJVZTm8tlYoyP37DhA1ON9SIZzJbHO6Q6FGAACp5CK5zdqkbUOq/bZSPiOIkkbybpuJZTmX3cxR2MJKVK3Ul4NhOElSDMOyLAuQrmmarpc6NVE0HWhsTMRisWg0n8+lEtEvrl4PRxOlS4AAAIA0VZFEMR6JRNbWrP4gzVAVLw4xDCMpimEYhmFwAi9dk3v6QJwgWZ63WCxms5mmqJoaCXTaLSxDTs8saDgdaAj6vW5yq7eMJEnxJpPVarVarWaeI0limyS+wrsJr5uoTLVzYyadpmi2e1d/d0cDAKBQ51oLx9biUb21DpDlCYcQYjgJdHllce68kFYV2eLye3w+hix1yKBotq6pI569E1uZDy/NQQwGQu1ul5Mqec+HEwRFMysL0+m1BYrEOd507FCvxVRGTOJ+CJLSNW1tZfZyIU7gGG+x++vqm4O+0iWQFM2yiC5zq1k6vkCjDonJ6fkvrkQBQAgSDW3tFF6TrP6ygRASNMNxOH3vnBFBMxwLGbrUI2abCk6QHG+mKQLbtNap9jNzVmeAseA0z3EcAIAiPDjNcTmRJMqXDDGKt3Z3dwlFkSQJhBBvtjoc9tJj9xiO0Zy5JRTK5vKSomA4abU7rBZT6X5I3mxt6ei25yUIIUmRHG9yu+1lOoG+xGx3NrVCk6tAUQQEkGZZi6m8U3Y2l5exqDi1WWfzGI731tXjJC1KMgKAolmLxYJv0TIVwwmru67FrK2fRbS5/IRZI+hqD9/VBJPF2tLRzdrNNLlZpzertUaTxcYDsH6Qn6AYm50yW3W8/B4MISRovqmpSUe64UPBCbzMcQhCDLo8XrvLres6xLBy83holvMFGt26DgDEcAzHsGoiCqzJ7Gd5j19fV67cE/oms40HaPOmKojhJrOFN5lUVQMA4jhWfU2GKpTBeKuDtSB4r/oBb7Wz6CEnj7YEhuO99SzEsM2rbFCtNWIPdHcMq/yLQgiJMte3D5WC4zheph2uK4ATlU6FD5GG4URVx+Bh6QuDan4FYmTJ24FNBf5m1QC4nYoIGNPDpv7EtvgGO+ywA9ixxh122D7sWOMOO2wXdqxxhx22CzvWuEMt2SntXgobnSl6vAOTIAhVVTOZjFGYuBpUVRMlEQAgSVL1nsuCIGiqqus6jpeRKlPZUxtRFASk64osVylH0/VisZhOpyRZLt0bjBDSdU3XVJKkKGrrQ+T5fF6UJEmSap5PWw35Qh7HcIS2UYadpumyItMPFMV+vDXaHE6g6xRJ0lVXayZI3Qi4URRV/QdDAGiaxjJMWQGVyp7aCN5koiiq+paRFT0hyG/dEqGaBpqI9JIGPkiwnNna5DUdddfg61QPz/M4TlBUGcUWngA8z2MYth3aZx1jMngwmPd4a7RabZJY5Dju/hLllaFpmiTLAACaoiqLB95PsVjUdJ1lmLJEVfbURkAMoyiKrbpSc0HUChHsozmLvDajpmb0YqqUp0hXh7ft0HHOdoK12Wxb39twgiBwnKbpLUwheBDjmgme20a1xjVNE0VRf2DBWsJKFSdUDCNJkqm6z6n31ro0TRMVpM79Jrqua5pWrqjKntqIoijSNF19yygAIZpIEjAX/kCcPKsmp0t5iuv+FtX6cpH0EbSJYbY+Ti7LsnFlS01GulohyTKOYdV/oxqiaZqqaaqifOXvm5WOvEOFaDJSi0gplPJvkSbtXIn3r4kda9xuIIAQKNXlgHa8mP+aqNwaEUKCIMTj8WKxSJKkzWazWq0VL/8kSUqlUtlsVtd1i8XidDqfzLZb13VBEFZXV3X9SwPAMIxhGLPZbDaby3qjYrGYTqczmcz6XyCEJEnyPG+1WmmafjIJ0AghURRTqVQkEsnlchiGWSwWt9vtcrkIgqiJDkaZBQgh9sjEek3TBEEIh8OJREKSJIIgrFarz+ezWq0kuWVOYFVV8/n82tpaKpVSFMW4ts3v95tMpprsXyqm8t9WVXVubu7y5curq6tms7mnp2dgYKBiT088Hr906dLU1JSqqu3t7YcOHWpqaqpYt9JRVXV1dfXnP/+5pmngXhkoHMetVmtzc3NXV1dDQ0Pp3TeZTF6/fn1oaGi9j+I4zjCMz+fr7e1tbGy0WCyb+DL3yOfzs7OzQ0NDt2/fjsfjGIZ5vd7u7u6BgYH6+nqer/C45jqKomQymWQy6fF4HtGDEULJZHJ8fPzSpUsLCwv5fJ6iKJ/Pt2/fvr1799bV1W2JQWqaFovFbt26dfXq1eXl5WKxyHFcfX39oUOHent7fT7fFrqgKrfGYrF45syZv//7vx8fH3c4HEePHm1sbLRarRUMvbquT01N/dVf/dXQ0JAoisePH8cw7MlYoyzLU1NTf/7nf66qKkmSRv+AEOq63tbW9vWvf/2P/uiPSJIs8QutrKy8/fbbP/nJTyiKuv9GOpIkv/nNb77xxhtHjx7d7OkRIXTr1q1/+qd/euedd1RVdTgcsizn83mCIL71rW/94Ac/6OnpqbLDxWKx8+fPf/LJJz/60Y+6urrMZvND/5mqql988cXf/M3fnD9/3uPxMAxTLBaTyaTb7f7jP/7jl19+2e/3V6NGZeTz+QsXLvz4xz9eWlqy2WwMwwiCEIlE+vv7f//3f/+VV17hts77WqE16rqey+UuXbokSVJ9fT1JktevX19ZWWloaKjgZTKZzNzc3PT0dGtrayQSWVtbu3r16muvvYbjeAV9VxCEixcvrqys9PT07N69m3rcxcO6riuK4vP5Tp8+feDAAWMN9sknn9y+ffvs2bOvvPJKU1MTy5ZUXRchpKoqz/PHjx8/fvy4w+FQFCUajf7kJz85f/58c3Pz/v37N9W5p2laOBx+8803L1++HAqFvve97/n9fkVRBgcHf/WrX505c6avr8/v97tcLgCAoij5fL5QKOi6brVaeZ5fn+WMuz6NMB2EUFXV9bt4EUI3b9586623bt68+Y1vfKOpqYnjuIc6UaPR6NDQ0Pj4+MDAwHe+8536+vpwOHzhwoUzZ85cu3atvb3d5/MZknEcN4Y8hJAkSUY4jqZpRVEMPzxJkoVCwRhTLBYLy7K5XC6XyyGEDM1L7yczMzNXrlxZWVl55ZVXjh8/7vV6l5eXf/azn83Pz9++fbu/v7+rq0uWZU3TcBw3hlRN0xRF0XWdJEkjGcbQiqbpVColiiJBEHa7nSCIbDZbKBQghE6ns/RBfJ0KrVEQhMXFxfHxcafTGQwGRVH84IMPRkZGQqFQBXPa8vLy2NiYKIpPPfXU1NTU7Ozs6Ojo2tqa1+t9rC09iCiK165du3XrFo7j3d3dJUqwWCx79ux58cUXDWtMJBLT09PxeLxQKGhl1vhhGKatre3UqVN1dXWKoiwvL3/44YfLy8upVOr+3elmIEnSjRs3BgcHMQw7derUCy+8YLFYNE2rr69nGMZoUgzDjOSqy5cvT05OJpNJhJDT6dy7d29XV5fH4wEAnD17dnV1NRgMPvPMMziOGz01nU4fO3YsnU6fP3/+2rVr4XD4rbfeUhRl//79gUDgQWUKhUI8Hk+n0yzLNjU19fT0yLJcX1/v9XoDgYDNZhMEYWJiYnBwMBgM9vX1+Xw+URQ/+eSTSCTS1NT0zDPPTE9PDw8PF4vFxsbGsbGxtbU1kiQbGxu7u7uHh4eXlpZ0XW9oaHj++edL7yrpdDoSiRSLRavVGgqF2tvbOzs7OY4bGxvr6OhgWVYUxfPnzy8uLjY3Nx8+fJjjuEgkcv369VQq1dvbu2vXrps3bxpbqqampuHh4VgsxrJsW1ub0+mcmppaWVnBMKy9vf3pp5/2eDxlBXsqtMZUKnXr1q1oNLp3797Dhw/H4/F33nnnxo0be/bsaWxsLGtCQwhNT0+PjY1xHGeMVdlsdnFx8datW0ePHi3dGjVNk2VZUZRUKjU3Nzc+Pt7f359Op437nB/rEzI6aCQSAfd2+SzLms1mi8VS7s5e0zSjI+I4rqpqPB7Xdd3n87nd7k0NxBkeqWvXrq2urnZ1dR07dqyurs74v7q7u10uVzab9Xg8HMcZFvXzn/88kUgYw386nZ6dnX3hhRdOnDjBcdzHH388ODg4MDBw8uRJDMPm5ubee++9ubk5v9+fz+dXVlZSqZQsy3fu3Ono6Ghvb3+oPhRFGbvKxcXFK1euCIJg2OEbb7xhNpsdDocgCMPDw//4j/84MDDg9Xq9Xq8oih9++OHIyMjx48efeeaZiYmJX/7yl+Fw+NChQ6lUamZmJpFImM3mI0eOJBKJtbW1aDRKkqTT6Tx27JjbXdKFBRzHWSwWCOHo6KjxOm63u6+vb/fu3Var1WazSZL02WefXbp06cSJE/39/YY1fvDBB7Ozs9/+9rc7OjoGBwfffffdQqFw4sSJlZWViYmJbDbr9/vb29sLhcLS0lI0Gl13C220jH8oFVpjNBq9ePGioijd3d1Hjx6dm5vjeX5oaGh+fv7QoUMkSRrLP+OW8kdv1mVZnpycnJmZ8fl8RqeZmJiYnZ395JNPent7jQuidV1XVRXDsEesXQuFQjgcjkajqVQqkUgUi8W1tbU7d+5YLBa/39/Q0PDoZUMkEnn77beHh4eNxdLt27dNJtOzzz7b0NBAUZSmaaqqIoQIgnjs+jmXy128eDEajXIcJ0lSLBabmJj45je/uWfPHmNw0TRN13Wj1Orj27pkdF0vFAoTExO5XM5ut9fX16//XxzHra9ZFEVZWFj4y7/8y5WVlZdeeumll17Ccfzv/u7vzpw5I0lSc3NzR0dHLBZbXFxsaWkx4pmCIKytrS0tLRUKhcbGxra2tsHBQUVRnnrqqf7+fmPd+yBer7ezszMQCNy+ffsv/uIvgsFgV1fXvn37Dh8+7PP5OI7L5/OZTMaYhSRJMlomGo0uLS0lEgmjJVdXV6enp/1+/49+9KOxsbFf/vKXly9fjkQif/qnf8owzMcff/zmm2+ePXvWmJpUVdU0zfhGG33upqam/v7+995777PPPhsaGjJm2oMHDx48eJDjOJZli8Wi8frxeNxYFkmSFA6Hl5aWMpmMruvGcJ/L5Q4cOPDtb3/7ypUrb7755ueff65p2ve//31Jkn75y19++OGHw8PDzc3NJpPJ+NwEQTx24VpJb5BleWVlZXBw0OFwtLS0NDU1KYrS09MzPz8/PT0djUZ9Pl84HD537lwqlQqFQqdOnXqEY315eXl6elqW5aNHjzocDrvdHgqFPvzww88///y73/1uIBDQNC0ejw8NDdXX1zc0NDgcjofKmZmZefPNNw3XRTgcFgThzTff/Oyzz8xm8xtvvPF7v/d7j54eJUlaW1uTZdlYqWazWQhhIpFIJpMOh2NycnJoaCiRSJw6dSoUCplMj7raQFXVZDI5NzdHUZQxzaqqGovF4vG4JEk4js/NzS0vL5tMpoMHD5be7I/F2LUKgqBpGoZhG5l6JpMxXuepp556+umnDx8+rKqqLMtLS0sTExNXr17t6Oh4xK8EAoGmpian0xmLxQ4ePNjd3b3RF6Fp+qmnniJJ8s033xwdHV1ZWVlYWDh37tybb775/e9///nnny9xC+3xeE6ePNnX18fz/M2bN2/fvj0wMHDgwAGe55eXlwEAyWRSFMWFhYXBwcHR0dGnnnqqp6dnozHC6XSeOnUKAPD2229PTk5OT09PTk5+9NFHPT093/ve906fPl2KShBCh8PxjW98o6OjI5fLXbt2bXFx8dSpUwcPHsxms2NjY++//34mkxEEIZ1OLy4uzs7O7tu3LxgMPnocr8QaI5GIsT622WxffPFFNpuNxWKKohQKhcnJSWMzOT8/n0wmb926devWra6uLq/Xu5ExDA8Pz8/PFwqFaDT6s5/9jCCIiYkJWZZnZ2enpqYMJ8Ha2tpPf/rT5557zuFwbPTtzWZzKBQ6dOhQsVi8ceNGOBxubGw0PH6PnRgBAG63+4UXXjDMQ9O04eHh69evX7169b333jt+/HgikVhcXBwdHc3n88Zy5RGiDDM7efKkw+HQNC2VSr377rvz8/MXLlwIhUKtra1GswSDwdpaI4ZhFEUZoTxJkgqFLxN6ZFnOZDKiKFqtVuN75fN5Y3FoNpsVRQmFQmazeWVlZWVl5dG/QtO0kVeIYRjP8wzDbGT2GIa53e4jR454vd7Z2VljsB4fHx8fH3/77bedTueRI0fW//EjkooYhvF6vTzPm81mhmFIkvT5fBaLheM4juMMJ5MgCBDCpaWl8fHxdDqN4/ixY8ceKo0gCL/f/8wzzzQ1Nc3Nzc3Ozk5PT9+5c2doaMjj8fh8vv7+/ke3AAAAQsgwTF1dndls5nneSAasr6+32WyaphkxJMPZk0gkrl27dvHiRZ/PFwwGHy22Emucn58fHR0tFos2m+3GjRvT09OiKBqusKmpqdu3bxt735aWlqmpqenpaXWDo1jGLHTjxo2VlRVjQnv//fcxDItGoziOp1KpoaGh3t7etrY2AMDt27f7+vqUB1L71vF4PEePHm1vb0+lUrlcTpbl/fv3v/zyy8ZK9bEbNpvNduDAgVdffRUAoOt6MBgMh8Nnzpy5cOGCsRirq6sbGxszhuFHi2JZtqur6/Tp0/X19bquJxKJSCTy85//fGRkZG5urr293Rgvax5twzCM47iOjo7r168nEom5ubnu7m7DURmNRi9fvrywsHDo0CFjJ4MQeug4ff8fdV033E7GWqtcfYzFrSAInZ2dPT09xgLv2rVrf/3Xfz06Ojo1NXXo0CFjlFzfCBg/9BXLNEaZ9RuBjNc0Irrrf0QIWSyWQCAwMTGRTqfvH4nuByG0tLS0uLgoSdK+ffv6+/tjsdjU1NS5c+f+5V/+ZXx8fHJysr+/H0JoKGOsVFVVffD1jS0YvA+GYYxdzHobGv5YYzGSzWY3avN1yrZGTdMmJydHR0dZlg2FQkY8g2GYpqamXC4XDodHRkZEUezp6XG73WtraxRF2e32hxqDpmnpdHp4eDibzbrdbq/Xa+jqcrkghKlU6saNG8eOHevq6iolicRisVgslvb29lgs9tFHH62urra2th46dKjEgLvR+oa1I4QYhqFp2liy8jwfCoVUVV1aWmpubja2so9tJUVRjJ0zhJDneRzHJUkSRZFhGCMvp+YpphBCjuMGBgbOnTsXiUQuXbq0Z88ejuNUVR0aGvqHf/iHkZERgiCOHz/ucrl4nje22fl8XlGU6enpXC5ns9kCgYCRPwQAEEUxk8kYn+n+/m2k4CCEDLeZEQt5UJ+pqam33357cXHxd3/3d411mtfrdTqdP/vZz5LJpLEpMA58FAqFTCZjbNgEQXis5T94V5fhtqUoamlpiSRJr9e7Ude/devWW2+9lUwm/+RP/qS1tbWlpcXtdnMcZ2ybi8UihNCI6wiCkEqlbDZbPB4XBKGU9v/KX3Ac53ne4XCU6L0r2xpzudzU1NTy8nJHR8ef/dmfGdOO0bF+/OMfnzlzxvBn9vb2Dg0NEQTx4osvCoLw0PwPQRBGRkYWFxfdbvdrr732wx/+0Pi7LMtDQ0N/8Ad/YLhzSmmI+8Fx3OPxBINBm81WesAnk8ncvHnTiKdpmnblypWrV6+aTKY9e/aYzeZ4PB6JRCwWi7H03aj/GYiiODU19emnnxp+hUQi8c4778Risd27d4dCobLepVxomj548ODAwMCvf/3rX/ziF7Isd3R0pNPpK1euXLp0yVgnt7a2aprW29s7Ojp69uxZY5756U9/Go1GT548OTAwgGGYMYCurKxcuHDB4/FcunRpbm5uPehq+KhVVZ2fnw8GgzRNP3TII0kymUx+/vnnuVzuBz/4QSgUymazX3zxheFZ8Hq9RhIMTdMLCwvXr193OBxnz55dWFgoN6QEAIAQGs7efD5/7Ngxr9druHMe/GdGSPby5ctOp/P06dONjY2xWOzdd99NJpN9fX3BYBDHcb/fT1HUwsLCxYsXBUH4+OOPZ2dnn0CqZtnWODs7Gw6HLRbLwMBAc3Ozw+FYHxKOHDkyNTWVTqcvXrxo7Nfj8Xh7eztFURaL5cFYRS6Xu3LliiRJ/f39Bw4c8PnulsQ3MmAPHz48ODi4tLQ0NTVlRF0FQTBC1Y+2MZPJ9Oqrr548ebKurq4UPwFBEDzP5/P5jz/++Nq1a8brFAoFY555+eWXEUJnzpw5e/asKIrxePw73/mO1Wp9qCgjXK7r+tDQkLEWNdJ60un0kSNHnnvuuZaWFlmWBUEwZpV8Pl9W5PqxGCmpr732mslk+vzzzy9evHjlyhXDqXPkyJHXX3+9r6/PZDI1Nzf/4R/+4a9+9auJiYm5uTkMw5LJ5HPPPffCCy8YkcOTJ0+urq7euXPnb//2b415pq6uzkg0BQA0NDT09PQMDw//4he/UBTlueee6+npeVCZ1tZWIwYwPj7+X//rf+V5XlGUbDZrt9tffvnlgYEBk8nU29t75MiRW7duffTRRzMzM0ZIychkAgAY5/iMQPx683Ict75wNXKAGYYRRfHy5ctvvfXW6upqLBZ79dVXN/Li9PX1nT592lg7jI+PG37vSCTS0NDwta99bbnJb4oAACAASURBVN++fQzDnDhxYmRkZHR09J//+Z8vXbpkBFEMfSCEFEWxLMswzP3JjxzHGcs3Y13N87wxshvrCyP4JIrio3NjyrZGhmEOHjzY3Nx84MABq9V6v43t27cvl8utra35/X6apo01gM/ns9lsD93o0zQdCAReeeWV3t7erq6u+/dRfr//9ddfb29vN4yZJMmXX365vb29lJwYkiTb2truHq9+XAiBJMlgMPj973/f2LcYf8RxnGVZn8/X09PT2dmZy+WMSDGO43a73fAcPFSa2+0+duzY/S9ifBuTydTT09Pf32+xWBRFqa+vHxgYcDgcxo/WNlfOyHmgaToYDE5NTWWzWYIgXC5XW1vbwMCAEfO02WxPP/00y7JTU1OJRAIh5HK59u3b19XVZaxi9u7da8yrhULB4/F4vd69e/dms9nGxkZD8nPPPUdRlKIogUBgo8RXh8Nx5MgRHMevXbtmLE1xHG9ra2tubn766adbW1uNtFXjQyeTSYvF0traGgqFRFFsbW0FAIRCoRdeeEHX9UAgQBCEzWY7dOgQz/O7d+82Moc6Ozu/+93vdnV1GY0ZDAYNB4/FYtloyK6rq3v66acxDBsdHU2n04qiEATR0dHR29t77NgxI7Gsq6vr9ddfv3PnTj6fdzgcRtRHkqTu7m6SJHft2iXLMk3TRlWBuro6Y+hvbGxkGMZms+3Zs+eHP/zhnj17rFYrQqixsfH06dPGdP3obwcfu3tZXgmLxYLFYjayNLLZrLEftVqtJpPp/neWZTmZTAqCYMQbjR05RVEej4eiKCMFxAgrGU45WZZjsZgsy0bz3d+JVVXN5XKZTMZYFBmJeEZW1HpDG658lmXLitp95Sld14vFYjgcvr8djDHYZDIZn9zwUxteO4ZhHA7H+qCQSqdpmubu/U9jIMzlcl+2L4QkSRqJBMZeUVGUZDIpSRJJkutZXTkRnZ+S/6e/T+eu/EVx/FdqYmIj/Q3zNpRnu7/d+MwfP7M38L8+zTc4f2NnYmzqDCe7sXt5MI3BaOR8Po8Qstlsxui+/nixWMzlcsVi0ZisBEEoFotOp5NlWQzDRFFMp9OSJFksFpPJZAzKhuXff9p4vXmj0aggCEYGWX19/f2f28hBN04C2e32TCYjSRLDMG63O5fLGZ3NGASNf1koFIxuYKxOE4mE4VwVRTGbzQIADFfFetg9k83iGHZ/UMo4WbK6umqcQKIoyvDS3Z8Bv/76PM9zHJfL5YyXtVgsxifGMMzn8+E4XiwWs9lssVh0u90sy2qalsvlUqmUobOqqqlUSlVVIxPA6DmapuULBVVRjG72ZW8p1xqr4SvWWKW0mlhjlXzFGiumdGvked7n81msNgzDmNDz/kM/PNTlfeMgW2+r/JLJWvGgNW4HHrTGLWcja9w5bfxbRmNj47e+8z1Tw0EV0Ihx0lanlcOGlhRRQQ0OnCK22iJ3qIIda/wtg2VZj79hVG+PF2kph8GEjkEJx8BrexmPGd+0ix53eBI8/uutL2VrGx+riTRUkajKnnq4KIQAQjUQhe7W1MBoK272I7W40T8kLHWAso6t4QsZWJR1AO6G5vY1kLKqI7TFxdpq2LY1BG0zlTZS5vHWaDhjDK9MlUqsp3RULwoAoOk60nWtzByRyp7aCISQVpOW0ZGuaQDphL2FDh4jnBtm3tGBRtzkA/CrGzMd6ZqmadpW9jkdIajrmqZtq65fwy5XKx7MNzJ4vDXmsmkAkCiS+Xy+eiWMRlEUpfp6B4qRS6XrX83L2ISnNpQmy7quV1+FPS+hoqAgpUB6eghnO0Ibdh22icftHoCh9VnRQJaVQkGjt+ZW4rtIsoxhmKIom3cXdwXIkgQxDG3yydKy0BHSNO3BVnq8NTqcDqFQMNz0VSqxnnpGkmT1bjcoSbqm0QyDPZAnVfOnNkJRVYqimKqzNFRdxAsLhSt/t9GouU6x2KR2fg3oDV+5Q4UgCIahWHYrV6o6QjiOU+Wfed9UNF3HMKz63ltDdF03qit85e+Pt0ae5xVZJgiigmP4X2E9+9bIralWmqZpAFBlGnZlT22EkWBQfcuQkoyJcWn6Xe2+JISHksY7ViYshVhBzhOqAnACN5vNLqfLayVYhqKorTQDUZIIHDdiy1uoxlcgRBHD8eq/UQ3RNE1WlEqs8SvJ8tWwLqQ20u7l6ZYlqrKnNpRWq5YBCGiSXohoivJoa4yvYNcvnY0Up/MiruqA5011nZ3H2453+UmGfFQxxSdAbdu2ZkAIt5lKGymz4xH/LWN1dXVt7ZcIQAAABIDzeltbvv7v9g2EWqjt1N92qIQda/ztA90LhyAAANIhQBgEO6b4r4AaWKMsColYZGJySlKBy+sPBINeZ+W3WSVj4aWlpUgsgZFsW3uHx+1k6SdYAxchRRbnZ6dXwhFVx5wef0d7G0PilV2BpqlyIhadmZlJ5wSb0xsMBup87m3lb0RIz6VTC/Ozq5EYxVnqA8HGYIAmtzKvrZjPrCwvLy6vSCpoaG4N1Hmt5mrLMVdPJhlfWVlaWgnjJNvUEvL7PDxb+wNW1Voj0rXVpYWhG9dnV6IIAHp2IRRPHTt6iGfIcrsdQros5G4N3picmc0XZYRANJHdt3d3W0uwXFFG4IGgaLxMK5KKhfDy3LnzF7OFgqYDs3WhqMBdHY1mvhKPXHR1aeTO7eGxGQQQhk/HO7txcr/f9fDTWFtCIZOcmhi79MV1WdMQgqvhmKSAXR2NW6QOQro2MXJ7dGxiLZEGCMwvre7bv7+3p5Pb0iQjuZgbH7k9fGckWxQRgqvRRF9f367u1ppnBlfr+1Klws3rV999/yNXQ2ffrq7Y0swnZz6YC6dUrezwjq6qseWpDz/+bGEt3du3u9lv/uC9d68N3ioqZcdtk4nY2tpqUX6Mf/IhD8bWrp776MLgpMvX2BL0Rhcn/t9//nUklqwkmK1rw9evnP/8nIBZDhw8KKZWr16+cPX2VAWSNo/F6bEvLp4fmoru3nPAZcJHhwff/eichrbmqh2EkCJkznzwwdDIZCDUeWBv940Ln165cjWcyD3+4c0kuTb/+bkLt8YXdvUfCNU7Ll84d+7CJUGufTpBtdaYWJ2LxFOEs/l3nj9x5OiJ4wP9Xit9/spNSSr78m1JEq9f+pxz+PYcOn7syOFnX/pm0KKn4msLkXS5oq5dPPfur3+9HMur5eWmoLW11YsXL598/oUjx46deuaZp44duXPhw2giKallDy6KmBmfWcpK2He+/erevfu/8dKzTqvpwoVL2yhLBaCx0ZFwNP71b3173969v/P1bzT63ZNDVzKipulboKamyKszd2IC8rd0nX7m5IFDTz19sEcsZIdHt3gIG77xhU7Q/YdPHD104GsvfCPk4QrJtemVRM1/qFprjEcigqRYfXU2i4nn+Xqfx8Kz09MLSvnpKaqqzk3P0Cazp66O53mL1VHnssiCGCnZGnVdF4tFQRDi8Vg4vJbO5guCICuKXmLfQmoul59fSwcbAg6H3WpzOpxuQohnMoWiVPZAWMyl00VFo831XgfPcXWBIE0Q0cVFdYtmnoegK5F4JiuoLc0NJp63u30WnkX5VDxdVMsffapHU7XVhUVIcza312LmWY5vbqhTZWVlJfLklbmfpYUFgJO+QAPPcWaL3eeyQE1d3QRrrHY5nssXZF3nLBZjBc3yDEkS6URar2ClquuJVNreSDM8BwAAEJrNbEFWC7mSrhYFABWy6VtXr6ZF+dbtkbVI/PL5s8tuU2tXb0Mw4DCXcDuIrouykiqqJp4jSQLikCApFlMkSVYUDYDynElSsSAhiCiGJjAIAM1xOIRSPqcigIPt4QLV1bykCDqwmDmIQQyjKAIngJIXJM2+BTcB67qeTKchTdM8ZzSP2WrSNDWfrTYls0pSmRxyuDiLCQAAIOR5Fkvns5naa1WtNWpI1yEA+L3OBSGAAJV6GehvgBBSdYQwCNddLxgEoPQTEiify9y4cG4pW7gzOp7J5cHFc5NmWiV5q8NVkjUChABQofESd4GYoUHZ8xlCCEGAvvTGQgAQQDpCYEuTSe8DIR0gHd4XjIYAQqQ/eCH9k1EHIBUhBL8cq+4VZ9ziFFMN6QhCuJ5gBAHaHK2qtUYTQzMYli7e3SWqkqqriOE5WH5IAMMwO89hqq5Jd1e5sqBgOEGVmgUKnR7fN//9jyRV/9X/+Mn80tqz3/qPrXVWl9ttKfEuBIhTOG7DoKqouo4AArqmiSJGkgRRfhodTdE0AkVF1hHAIdBVRUcQIxkC2x4TIwAAJzgc5wFQFA0gAJCuqUhRcYahKovoVAmGYXaexVRRk+9WzZWLCgYJajNv9SoFK8vmdKCKdzu5IqpAx+hNSHytdt/o9vkpAo8tL0qqrut6OBrN5LKtbU1k+WmoBEE0h5rz6VQ0HNZ1XVOKi+EETpM+/8OLiz8AJEnaU1dXHwx4PG6Xy+mvqw8Eg3arhSJLUwbDzSa+wW9dXFrL5QW5mMtlkgJttVh4lin7dVirw0xDUMxE0gVNR5G1ZUmVXcEGAm6XqRFA0u20mFhiZn5ZUVUhm8gVixpr8dhZEt+CRFOCIOqbmuV8NhWNyqqOEJpdWMQovD7ge/LK3E+wMajK0uryko6QpoirsaQCUDBQ0iU8ZVHt3Gjz1nvdztGJufc/+tTGYkO3JwsacaK/i6LKDtlTFNWzd2D8w0tjQ1cthCjn4kmFbvP660oO0EEMo2gGANDVu9td11DntvEcW07IEfN4vfv37Rm6epGQMzypzkxN9QyccDvtNFF27yQZS6gpkE6n33vvvc4m//jNLwqyvv/gvm2UTw2xtra2eDJ94ZMPyOLeTGQhnMy27dprZYly47Q1AcMJT0Or13o5vjzz0adnbSx2c2LZ39bX2bpV8c+7tPfsnly7PDV87ZyDlvPxtYwabK1r8FWe4rIR1VojZ3G1t7WGV5Zv3bxhYfFsEdU1tO3uaCp1OrpfFZIOde9pGZmdW14bHByUC+lAW29bW7vDXPZCpbNnl6JqvJkpN23A7a0bOHZy9lcfTE+OAl1TFO3lr3/d63Lg5XdOSFC9u3oFQbg1OiylwmvhdGOo88j+3WUL2kxC7d2pTH7+s8u3h/F0ImZx+PsPHKMreNtagOG42Vm/Z1fnnfGpoZs3LAyOWGco1BYKerdEn3Ua2npC00vZ26ODNwflfMrub+zs3uW21H6lWq01Qozo2b3fHwjeHh7OS6i+obmlucnGVXJ6BWIYY3F947Vvzs3NLiyvEqytr6/X7bBX0DdMlgrzXTiLvXPPof/Z7pqcmVMAURds7uloJSpctsGWzt12d13L5PhKOLXn4NHmpiafu8RV9xPC7g0cPmEONDZNTM919fS1NLc0Busf/9hmASFOnnzuxVDn/MzMXE5Cz77UF6jzmpgnmBr5MGiT45nnX+zo7p6YmiG43s7OzjqfZzOWDzVIOMJJyuHyHTxi03VEUjRd3UEyzmJr6+ptDHVADGdZplJLqBycIP0NLQ5fACFIUhSBV55YimG41eHatedAp6KSFE1R2++YBYQcb25u66prDGE4QZWfS1hzSIoNNIY8vqCGEMOwFSyyNgOWNzeFOnyBJogRDE0Tm5PKW4NXhRASJGUma3OaE8cJliW28KA2hJCiGWP/Wb0sgiAJYouH9keD4TjDcgxbSgToSQAxjKYZuibtXzswHKdxlmY2t19uI5/CDjv8G+fxc6NRPmP9Kr9qWC/6UhtpCOm6bhT8Kf1kd2VPbQRChriatUy5Khk3DdakPatnXZNtddAeIWR89K1W5Et0XQeV1YyLRqOqqkIIs7lqU+mNy9gAAIqqVv/BVEUxGrosUZU9tRHG7YUVJOV+hXyhIEoShmGgzDQDiGGKouQLheq/TvXIkoThuKqq2ya/AQAAZFk2bgrbakW+xDCEB9uopCpVRUEw7leoUol1DYiaFIlCSNd1iiQhVk49mMqe2gDjhqPqW8a4vwndo/QHkVGmjaKewO2Cj8W42o3cbjXjNM245mirFfkSXdclSXqwqOTjrdG4G4ggCKrqm7G1e2Uta1KyTVNVTdNIksTwMoIglT21EXdrxlXdMutF9B5bwfE3gBAhhGEYSZLV61A9Eo4T26+Co4TjGIZth/ZZR9d1VVHUCqyRJEkcwzAMq95+jK4DAKiJNOOyawzDykoireypjTBuz6z+XXAMwyAse25ECCAEIcRroUP1YBBiNeoqNQRCiEG4rVQC4OGneLbRGLbDDv/G2bHGHXbYLtQg+q9raiGfW11dlhRgdThdTmc15bREIZ9IxJOpDEZx9XV+E8894XQcXdPSyVg0FlcBZrO7/F43Vl2ZN13XhWyyqGI0w1pM26j+vIEkFlOJWCSWoDmz0+ly2q1bcpxqHU2RU6lELBYXVVBXV2+zmunyTyBsDkhVlOXlVafLZTKbNqONqrZGpMfCq5Pjo7PLazoCLG9rbG7Zu7uXIsovqIWQqohjd27PzS9khSICsL6xvauzLeB3lyvJ8IVgWNk6KLKYikWufHEtk89rOjBZHT19+5rq3SxTYaaRpqn5TOr6pc9Uxt8cat1u1igWcosLczeHhkVZQRD31zd2dHU31df+rFCpIH1hZmJqZnYtlkQIzMwt9vb0tDQ3UOWfoamxXggVC9mVxfmPPr164mtPd3S0bsa9tVWf/VelkVuD7737HuNvc/NwaHBodHyqrrG53mEqd07TdS0XX/3g/fcjyVxjS7OQWP5icPyll1/0uJ3lHmgq5HOKovIWO0WUN6/l04mRGxfffOtsW3srAaTo0ODkauHfffPZep+rgsbXNDWXTk6O3PqH//7/eLuePc072pu3+KjeV4itzn9x4fP3zw8dPXIgvDg9PjkdzsiNrz27NfFChFRZ+PyTj8ZmlkzuercJfPbZhWyhaHe7vbYtLqkqCoWFmYmzZ97/b/98zt8cam3fltaYjS3NLiylkeX//L3/yBLg3Ae/HJ2cP3/1zqun9hFlrldlSRy68lkRcnuODnz92SOalP8v//k/L81PryX7mzyWskRdu3huJRw7cvr1Rk95g8LK0uJnH3904OnfOXl4r4vVhwav/Ze/+v+eO97v9TjJ8tdvycjK5Yvnf/aLt9YSScd2ij7fA90ZGlxcWn7+m797+uguObP61nsfX/rso9e//gxDYE/+WJWmKYnlybHFmDPY/sPffYMhIBD+r1RsbXh87tlDvU9am/vR1WuXz33yyUejM4uCLIBNKzNW7QIgtrqaFySrv8HrtNts9qZAvYXnRsemjJvhykJRlImRUdZsrW9otNlsTo8/4DKLeWFlLVWuqHgssry0VBDV8goRIi2dyUzOrYVaQz6f1+3ze711Wmw5lc4L5deMAwCommZ1eI6dev5AX5vduvUFs7+Krq6sxVNZsbu7w2az+QKNNp6TEuFoRtyamnGKsjI7jQjW4a1zOe1Wm62jpVEuSvMLK09emd8A6RRnbu3s/cbLp21mZvOCqdXOjel0WtY1s8NhnMQxW8wMQ0fnY1r5NeM0TVuLRs3uXSabBUIIIGG383FVyWRKzPlChVxuauROTlZuDd9ZXou6Lp+PzJobm0M+n9fClXAmQNeKohTJSXa7haEpnIA0y7KgKAiiLKuALbutOJO1pb3TE2iC6eHsdrqx7C66mhaKeRW5nFYcxwiCoykS18RMTvKYKfqJ+9s1XY/G4hjDsBaLseN3uuzaeDydLLugbo2BWKCh2e5wQDX33xlq8xYN1VqjpGoqAPg9rxdOYBgGFPkx1549FIRQUVbMBIbdq6lDUDgq6mqp0yzK59LXzn2+mivcHh1LpXPE+bNTFubwqecZk7Uka0S6hpAIAG64oCCAGCRJXdMqrPZrtTutdmc+myS22gnxcJCuIKRCQBA4AABADMcAjuuKsjVXhRsdAOA4fu/0IEHiCJTeATYNjAgEArpiX5kf39SqRtVaI0sQFMQK6t2FnK7pSAcESVaQAopBaKIoTEfo3hXtmqxDgOOlng+EvMnSN3CoWZIL2fRqOLb34NFGD9/c3GDhStvBYhiBYTyESLtbwxDpSFUwHMe3/AzupoBhNIbRANxdyCCk60DXMJLEt+QQxr0OoOj31smaUlYH+K2nWmt0epwUgS2Hw8apiGQyXRCEQGNLBYlIOI4HgnWRfCGTSAEQQLoejqUon8/lKbEcEGR5U3f/HlVHM6PDACN6d+/pDNrMJlOp99pCgmMZv42OxdPFOg+LAbFYyOi0ycyyW10MYlPAKLuZNVEwHE35zV6g5QVJljDGZeO2pGYcjuO+gF++cyuXShmFddfCEZzE3T7nk1dmS6jWGh2+oM18RxgfvXrzjo3Dbo1OxXPS3kOV1IwjKbqnf9/c+ZHx20MBBy3nYsspdXenI1CqNQIcJ8xWGwCgq3eXzVPXUOd1OvgyfKoQulyuvp6O619c4nHZSql3Ru74O/c57Taa3JZLzSqBWEtTYzSWOHf2EwsYyERm1+Ipb0un3UQ++QIowKiB0tTOY9cji9ODwyN2Frt+e5rxhtpDW1wz7olRrTWa7d6W5qb5ufmr167aOXw1kbN56vd2t1LlX/FFUlTHrv3XRxeT0aVr1zA5F7P4mpuaW9zlx5rau3oDzaLLypSZVgI9Xv+hY8ff+mxw9DZBQjWZSJ964UWvy1FBeONLoRjGm20K5LdNTsk6sLWjK57OXhwaG7QRqfASpLiDh3dz1bxtFWA4Yfc1drc2zC2Hr127amfxjEK0NTa1NW1h4az7wXCCcrtdLENvUvtUa40YyezZP2C1WT/59OxCHIS6+vfu3RNwmStQF8MJm6/p5ZdODw4Ojk7Nkbzt1VdPt4caqfIjX776QPm/DwAAVqd379GvqYC4NTaR04iW7n1fe+ZpM1uVFREE1RDqdUGv21FayfMniL+p/TDJkiQ5PD7B2337+/ft37d7y7bIEOIU//xLv3NraPD6zVtREZw8/Tu7d3W5rdujZg+Gs7ztyNHDPq97k4arGuSpsiZLe/fuuoY2HQGKphmGqWIegXWNrXZP/bFTCsRwnucrWPFWA8QwhjcdOHZq14GjCECKonmu2jL4FM3sPvgsAgRZo0JeNQTDcY+//unnXz58UsZwgmHYJ3qT9MOw2N0HDj+1a8+AjgDLcQy9WRNRuWAYaXH4vve973ImfpNSI2pgjRiG0wxHM7UZwEiKJqmtPKaNYThvMvOmms1jEGIcX14u0RPkbr2/7TNr4wRR2/avGRDiBOlwbmJF3H+Nzokddvjt5PFzo6ZpOrpbG63KH1s/2F5DaeWKquypR0mrRb229ZYxasCV+BSEcLvVjKth29aKbahS5TXjMpmsJEkEQYiiWKUSmq4b+asIALzqbD9ZUXRdxyTJ6JSb+tRGGNX0qpcjiqKiKBiEqMzaWRBCTdMkSar+61SPem/g3lZ1cVRV1SHcDu2zjq7rmvaQzOfHW+PdobrMWmYbyfpSaI2kIYTKmk8qfOqRAquXU6WEcivNbRIIofXm3Wpd7gMhVKtvXSM2+lqPt0aWZTVNNSrzVamEpt+9NpcgyernRk3XoVH9rRxRlT21ERiG4QRRfcuQJInjOCrfrtZrxlWvQ/XIioJjGEEQ22pulGTZaKKtVuRLdF1XNU1/YHospYIjK4lFgiBKzS/bGFVVDQ1IgiDKv271QWkaAESZoip7aiPuVnCsumXuWiNC5VVwvM8aq9ehekRRJAiCrEmx3NqBiyKOYduhfdbRNE2S5QetcRuNYTvs8G+cHWvcYYftQg1WawghVZFz2YyiAZbjOY6tJudY11RBEAShiBGUxWImCWJLarQgXZckWVY1i7mqM/uqIguFQkEUOc7EsSy5PW4jvB9d0ySxmMnlSIrheJ6lt8WKTtNUIZ+nWJ4gtuba86+ga5ooFvP5PCQos8lEb85VnNV3DpRJxpcW5mYWVnSEeIsj2NDY0dpUUQsiXdNmpyaWlpbT+QKAeLCprakx4LI/6UQWhFAisrywHBFU8vjh/orlCNn08vLixPScomoUyzc0NrWGWritTj27H1UWI2urY+PjeUEEGOGrD4ZCrW77FufBaKqSiIa/uHSpa/8xv8/LM1s8hCFdXV6Ym5+fT2RyCGJ1gebGxqDP7ai5PVb7nrqmzE6Ofvzhh/PJIkdBScXbOnu9Pp/dVO75CYB0vZhLfv7JR6NTs5CkZSFr8Xeefu6ZQ/t2EWXmBUpiUdN0iqlglkaapuWzmcEr5y4NTul8feXWiNDy/OT5c+cvDU95nLZUKtuxaw/N2zoat/gW+/vJJCI3r13+1XufuH3ebDrtCbQceQp+7Vj/Fk5GqiKnEtGb1y//1V/8xf/yn+rNVseWW2Mxn7566cLlqzcgy8uFrMnddOz4U8+eOETWOl212vcsZmK3R8bGVzJ/8n/87xYafvLOmzOLE1fuzJza11Fu/rEiSxODF2bCmVDf4VdeOCnnYz/+878cG3G3d7R7rOXddHv75o14IrXr0CmfgytrltY1LZuMvv2L//HJZ5+Gs/iu/ZVXFkWa/MWVLybnlt/497/f1+K7ee7927PhDz+73PGDVyqWWXNGhq6NjY91H33x9dNHsuHpM59deeedd04c3k3W4P6uCllbmj376cdvvf3+2OxCviiiTSvQVjqzd65PLYYdTbv+w/delfOxv/6//9udm1f79+yus9f4cEnVNeOWF7O5gtnb2FTv83i8bS1NNhM3dGtMlsuvGSfLI0M3ebO9saXN43HXNbQ2OLhCNru4lihX1NL87NjoSLog62XWs1EVKZ9JxgXYu6u7u7O5mpCxlE+GY1kJMX1drS6Xq6e3hyGpiTsj2uYVACwXpC4srCSS+b1797hd7pa2LofJlF2dj+UkpfwiY7ViZWUFklz/wSNNfo6mtoWXcWpsFGJkc3uXx+X0B1qCbrMmFmaWYjX/oWrnxmQyIaqaxe1hKAIA4HLauYq6LQAAIABJREFUTTw7sbiiln/BqKppC8srTGuz3eUicALghMdpTslyIpEFoJTzpkgSi2uLS0VVm5icXFwOB8dGlLTV4/PbbdYSJ2oMwzmTpX/vfkxcGLyzuJIp9yW+pJjP5BRdo3mXlcchcLjdFImnImEVAXJTSx2Vjq4msvmcpNXXewmCICkbz9JQyqVykp0lyz8uXhscLm+PyeGtC9z46Kfl7lA2iZW1MGDrXV4vjuM4zrrs5lxUjEZTANS4KEG1TS6IkgIQxd0taE9SBI5DIV+sYFbRdT1bKDIUQdwrs09zFBJ0qSiVqkw+d+f6tbggTk3PRhPJWzeuRh3crn2H2immRGskSNrhDTztDS6OKSOTq+W+wv3IsiRjEFE0DgEEgCApDABNKqo6IDGwLcwRaUVNlwCkaRJCACCO45DAtGJR1pEOwNZE8Fs7uiGEk6PD2+e68nxR1EyQvFetm2JICItiofaJr9VaIw4hDqB2XwIqQKCyxCgIIWnU6V+XpusQAFjqxg+pqpJMxGJ5MZvLFQpCMh4jVC6by5dxEziEtZq3cIjhAMLfaBkIwTbw1n8JxAHEAby3dkYAAYAghmFbOHlvq6w6AwKD6P4G0REAYDPuDqq6SpXdSuN4IpFGAEAA8jlBkhSnz1lJzTgM83tdQlESsnkAAAAomcxjVre11AIWmM3hPv36G4qm07g2t7j6/De/215vtTvsPLcFpRxYs4UFeq5YEFXE4LCYz6sA0TY7hT30Is2tACetLGUiUDoj+HhK12VR1kRE2q0svhVVqrYtHqcjrGn5pLFvQZlMQUfA7i61eFrpVNvoTn+AZ6jUyuz8SiQej03MzMfSub7ejgq2HSRFdfX0ZhPRuemJeCK+tji9EMkxnKneW+ppa5KiPf66+kCgrb2js6u7uakh2BC0Wy3UVsTcaZPNbeMIJTc0OpVKp0bu3MkJxVBnJ75NNo0AAEgE631WE3P16vVkKjU3NRZPZzhP0Gmma+67/60m1N6uisL0+Eg8mQovzy2E04hgG+tdNf+harup1VUXDNRNTs9evHTZxmLTSxHSZN+3q50uP2WeJKnO3QcGZz5YnZu8fAWTc3FgctcHG3wOU7miWto6HN56h5mu+OZFDCNoimaYymuCELSpoy2UzeWuXLqYbvJP3p4gGFP//j3bqZvD1vaOWCo9evv6NU5LRxaKGuzbd9BEb332C45jHG+mCGI77B5DXX135mJLK9NXrlyR83ERYxuCTQG3teY/VK01kqxpz969SJXeP/uRhkB9U+fBgcOdDZ4KvidOknWtvccGIle+uPbh+x8AjDjx7Mt79/TzdNlKdvT0lfvIV6BYk9vjVarJm4H43oOHMYJ894Mzs3dumJ11h4/sPra/p0rFaktzxy5ZA+HwWx9/+C4guL37Dz1z6tR2mBdphgu1d9ms5i2ps/wVvI0dh/YntYsX33/vHQiJg8eeOTxwwLwJOQnVS4QuX+D4117s3X9E0wHD8WaTudKhFUKM6B84HureLQgixEmb3c6x5cX9a4XD1/bUiaCsVtUxTTbX/sNPtfXsLkoyw/Jmk5ktf2TZVAiaaevu+w+BxnxBIEjaZDKbzWWvRDYDr7/+R//bf7K5/Cy79XmzEMM7+/YFWtpz+QLEKYvFwvOb4omoxRk/guTNVpY3IQQw7P9n772D7EjuO8/MLPvqed+vu19774BGww8wHHBmMDM0w+WK5IonSnSiQiuKku4Uu3e3dxexF3ERd7Fa3UqiTIhc8sgRSYnDocjxQw45A+89Gt0A2nvzXj/vymTm/fGAHgcM+lVVzyuS/Q38geiI+tXvZdUvMyvzl58fMrYmBm2SXRBthGAAEVMhlsJEsbzkZkWD2/SIYSS7Q5QkjAliGFTdEt73EoRIEG0BQfB4cfnZWWFmCADgeCFS34AQa402g4JN4gXR7fEBtImvpTldNYSQYUzr9Q2HtAmCEEJTjsxCiCCDkIVO375XECLOYqUNIISsxYrhQITYTX4tHxxC5dPoppBX6F1iCjUDnbLuEqF04z2Vvqve35qZXBwI70kTu6cghODOBq01uDh3iS9WcObtsppL93PmwdEoy7KGMSakgj30+4hgXAbpYU0z3jqYEEKIpmmoElP6rrqfyuwM4y1TbmEIYRkbt/ELIYRlyIpxH4yLYEwgxJpGqj21ebvKr5wV2mddlBB6L6Lkg6Mxk8moisKZQXBcB9cRMyB/qqJQSmVFqWgSr++q+6mcjmu8ZykTHCGECKEKrEFoLYKjphFKy7UDq+3LW1JV1Trfw2VRSjWM3+vQhphxlBCGZXkzmHHl/3BmMOMoIZiQMqGsgpmqrqvuJ0WWWYYx3jL6KFVlCCVCiDPj6RiXpqoMw3AWY8aVo9EK7bOu8rD03uHxwdHocrmwpvEcJ4pGNxs0TSt/FAk8bxzZRghBGFdqSt9V91OxVOJ43njLKIrCsaweZhwhDMMIgmDcB+NSFIVlWUEQLMWMkxWFQcgK7bMujLGqadp7otFCfdiWtvQbrq1o3NKWrCJzNgkppZqmEAIYhmVZo7MUrGkaxhAxHMtU8eMbY0Io4cyY0BKCKQEQQUt9UN0VJYQoisowDMNYZLcdUEqxpiGGgVB3rrH5opRqmsYwzCY9RzO+nfLZ2MrSxPQsJsDlDdTW1tXVBHW2ICUri/MLi0uJdBYitrG5tSYUdNirMOPPp9eWVpMFBQz0thk0panKwvSYDCSP1x8KWKuQI8FaKrE2PT2VzGQRK9ZEaqPRqKPayWiUkmw6NXr9en17r9/nFXlLfIUSrOWzmevDt1ra20KhTSlvbDQaKcGLc1NnThw/PzwGIXB6awa273jy8CG7UHH2PaVELeYunjt9+er1eCZPCO3etu/gQ3u62xsr7R5VRSGUsJyewwiUkFKpcHvk8rkr43nqMhKNlFJVKcVXlt549Seqo23bjl1Wi8ZCNnXrxtVXfvaLoqppBLZ39R94+NC2LpMBExWJYJzPpW+NXPvuN/7xk1/588FtDitEI9bUTDI+dvPGd77z/Oe+9Hl/cFOi0fCmXzF94fyFN05cevozv/elL37BJ2gXT715Y2pZ0e5REOv9hVVl7vaVY+euIUfkC1/80mc/efjssdfPX7iYK1VsamFuZuzWrWyhYkoVpaRUzF07d/w7/993fvrSz5ZWk5Xe+u3SlNLsxK0Xnv3eN7/7g2sj44WSYsTaZmjsxqUL58/Kttrf/fyXP/LIrlRs/rnnX8FV5bTlMsnzJ49891vf/Mlrby7Hk+9deKyCKE3Elk4cef3rf/3XR89ejqcym+ST0WiML0wnkhkx0LC9t6OltW2gq93vEM9evCZXzoxTFPnq+TOS09fe09/W0tIzsKvew2WSazPLiUpN3bh66cTRoyupIq5wX16Vi7HFmZ8du+DwuBoaaw2W4FxZnL0xMjoZK3S017tckqWSswAAgJLxscnV1eSBhz/U2Ni4Y9eeoMe1OHYjUVA1XDVXh69euj01z3siDTUib5HsWaJcvXrtxq3Jtr5tdgEhuFmNY3SmGl9dLSiqq6bO63ZAAGprw+NTszfGZzS1cmacqk1MTIj1u8J1tXa7Hdil2oAjXyquxlKgObQhC5qaTaU1QmampyZnFtoXl+yw6HK7bKLIbWxtCUIkiFJnTx+vBUYnY2vG8ls4XqyprR/aLU7xMVqNr98HiKor8WS6qLa1N9vtEmuvdTsknFtLZEoOTuKqtGfocHvbu3pdvtDYuZeNlJAwUxB6/cHuvn6bwPzyjTObt85lNBqzuYJCiM3rLHtokwSOY9OJjI5RBROaSGX9rbxwh0AHHQ5broQL2cLGDNBiPjd69XK6pExMzSyuxIavXsosOls7e6L1dV6nbSMmWE7wh+uf/nh06faJxVjeYDT6QhG3P9xZzP3r7LGEBY9xEC2vakUKHXYRQggRy7GIB1ourxDvhpprM9TR3d8J4dT46HOsZVZTIds3sL2rqz2xPMWbscZ+PxlexQEUvB30AgGAlFJ9E7xyiiN4a/kHwUqy72kmuXbk5RdnUrkbozeyuXxOfcFt5x99+jOSy7PBaIQIsbzAAmAKponjeI4DmrLB3uQDF6WkjIu70+AQAAgQJYRU8cuxnDRjHXgQAABAJAgChzY979wwF8chiYiJ3x2+SgVZVbHL59axIcMgFPS6gKLJhTtDUj5TRIJPcm2wShQK1NR97qt/UtLw889+f2Z+6dFPfakt4g6Gw26XtVYyrSKGd3KcA4FiUaEOjhJNVbGisU6naDyLeEs6ZLTRAzURkWMSC9PpfElR5PmFpWQ6297RoqM0Gstxbe3tmWRiaWFeVuRCNjG7kuIEMRLybtACL4h1Tc2tbW3Nzc2NjU2trW3t7e0hv1e0UlkoCwmxNUGv08aN3hyTZSW5upjO5aHT73eJVvlg+w2T0bHRG6qrCQdHxqaPnzzlEpkb47MqEg/0d+pImed4vnvb0PDSqamb1844gJpP5qjUVxOJbHiPDkJYzldubmt3eIN+l8RxOpNLIIQMYpA5KxkQIZZhrHWoBwAAAGppa11NJC+fPelFhUxsNpmX2/q2eWwsW+2MHAgha7GzIOWZPMuxaNO+Z41Go+j09/R0x5bmXvjJcyKHOMnXv31oR1cjz1X8HnOc0Nq3q2t04tL1G889N4blQuvAgZ7ePq+9YoziwNBuQijH8brzvFhOdLrcPmzCoIoQcrp9GDltYvWBS+9SZ++2bL448uMXXlidzhcKrV0DTz1+mKt2KAIAOJ4P1dTZbZaaM0OWEyI1YUnarCUuwwtEEDV39PpDtXsWFxVMXR5fMBgUOUZP7wEhI0iHP/bJwb0Hkqks4sXa2jqv26nDVBmpYmQs8tZ0PPyhmqJqwqsgiNLeQ/9Wg3ane6NT7g9Mkss3tO/hxtbO2FqSF+3+YDAY8FfbKQAACNXU/f6f/u+1TR0uySpfGZDlvaHoH3/tqw1NTezm9FcmLNfyguANBG12B6GA43me01+EGULkdHsFmz1Uo0DE2kRR39qm8TmhYHOGwlKFmTz3FmLYYE0DBchEkJdZgoix251CVPQFwwzL8TxvSpa8cdlsUntXHy9IDGuVsRFCxIv2zq4OQRA3afZgStNDhmHtDnPKU0OEBFEUqn02FDGsYFLwQAh5oWrbdw8URIjjBY7XT1XfDCGGsTusthIOEWIcjk3kzT6447EEjew+ulNaqUIH9V11H1t044i3zVP1PbC2flXaZ0MExzIh0GDSJngbaNAsa28RFDccEvqueh9rpvyWMn5D5ym0sgcWyK6m5jWIibKmS/f8+4OjMRaLaaoKIczlcgadKKMTAQCappnAjFPVMqGsogVnfVe9jzVKaRmEZ0T5XK5UKiGEWJatqIdACKmqWigUjD8d41JkWUVI1TTLpLQBAIBS5gNaYAqzLkKppt2jqsSDo1EUxSKlDMOYwpUq9wqmbCURQkCZ/lbJs9d31f2EEDKlZViWvcOMq2TEhgCUmXEMy5oC3TIoVdMYhDhrFJZaF1JVBKEV2mddpIwj08eMIxhzHGezGV2K0O4SZgVBMN46lFKEsSgIFdEy9V11P5VkmeN54y2jqirHcZRSgnFlzDhKy8w44z4Yl6ppLMNYjRmnqCqDkBXaZ10YY4zxe49uPjgkym9tWQadWDdirrWKhll9V72/NXN+i97FhjKh3ArDETSvQUyUNV2659+tspmzpS1tySxmHNFUlVBzmHGgTJRRVZbjqrIeQClRVZUCyLKswcwsSinBmqJhjuUYRleK0qarzIxTGIa1CDOOYKxhjRDA85ylUlUppZqqMayFmXGFXGZ1eXF8akYjwO0N1tXVRWvDRl47rCmJtbWrV0d37BryeNwf5OtBCZaLhdu3b8UTSY1Ct8ff2dnlkAR9ZxqUUiG2sjw+OVWUFZvDU18fbYjWWqFY77oI1pJr8cmJ8UQmx3BCTaS+qbHBIVUzEyCdiM3Pzy8ur2oEhCLRhmhdwOu2Qi9GsJbLpK9eHW3r6giHQ9ZkxmmLs1OnTxy7fGsaQSC5gn0D271PfNgu6hzWVEVOxJYuX7z47Wde+j+ijS6PW8fLqygywYQTxEqZcXKpsDA99torLyezeRVTtzdYxPxgb7PboaOWLY0tzV84d/b4ucsIIcDaBgaHRPsjdUFP5aY2S/lM4tbwlVdff0MhVMWgpb13/0FmsKelSi8/JVi7fePquQuXJudXIATuQPRDH3p4545+qdpn4jRVSSdit0eHv/vMi7/75c8HQpsSjcaZcZkL58+/cfItZtyl028OTy2rlTPjAACA0tjS3OuvvPCNf/zGmcuj6XxB3y7RwuzM2K1bmXzFzLjVxdljP39hIcc9cvjpTz/9ZNBO//6b311aienxguKzJ4+du3Cxb98TX/7KH3TXO6duXX/j9FUdljZPY8OXz58/J9vqPvf5L3/0kV3p2NyPn3+1Wif/KSFKbu3lV3+xlCh96rOf/8Pf/3xyZvjSpQvTS4bIfWZ4RhOx5RNHXv/6X//V0TOX4smsRZlxsfmpZDonhVq2dbc1Nbds6+kIuOxnL1yT5YqZcQBQQORTp8/Mrybae/ttPNbd/dy4eun40SMrqSKuLBpJbDV26dL1XXv2dHR2dPX2dff0LI6cjyfSRbXi9ldyydnFeEHjD+4fikaj+/bsdkq2KxcvWWgTmpLx8cl4PPnwI480RKPbd+4J+TzL4zfW8tVhxmFNnR+7USBcsL65p7O1vrF197auUiF/4/bEB+/MO0SUq1ev3Lg91TW4yymxDNqsxjEajWuxWF5RXTURj8suSfbampDLYZucmNV0Fq+EkbqG7YM7dgz28wyoNBo1VU3EYqsrKzPTU5OTE/OLS8vLy5lcfqMDNcGZXG56ORVtrPd5PS6Pz+8PoXwsk8mX5Ip/TjGXThVVzDvqw36bzVYbjYoctzo3p1aVVvoOUXVlLZUuaq1tjZJk8wVrXHYbyScSmZKGq5BHpmna4vwcFWzuYMjttIs2e3NDLVbVpYWVD96ZdwjCQCgysG37vj1DDom3MjMur76NGSdKAseymaQeZhwAECBuaNduouRGrl+q/KuTFgu50SuXUiVlYnJ6cSU+fOVCesHR1tXbEI1uiFJFsaJqKYXYJJFlGYggw7ISi2VZ0THxVooFBUAqiDwDIQC8ICII1HxWI4BFwArLEoBoBVUrUmiXysw4jmMRB3AuLxNfFfbKCSGpVAbxPH/3OK/DKVENF3L5D96ZdwiyPX0DHR1tieVJSzPjAHgP3wtS/b0/RKIoYqiPyU0zqbUTP3ttJp0bHhnO5PJF8KrHzn8Ycw6Pf4PMOAoAgRCU/wEIIAQIUKDnB1FAKQR0vXEgBBBQaKV0SQronZSDtz1ARMsnU6rjEXw3gpACC5yS+VVjxt3pve4w47yuamwToWBN/e/88ddkjfz0h9+bnlt6/DNfbqt1B4JBl3NjZy8RK3JcgINyUdY0DFiIVbVQQqIocJWXghAlh0hBQS4pFHAQqKUSJpCzOXmLDIwAAIYrM+MKRZk6y8w4omisw1Ed/gWDUMDtAlMrSvEONDCXKSKGlZybeKTQUjLOjKsVeXZtfjqVK8qyPLewlEhlOjtbdTDjjIvjhdqGxqbm5sbGxsbGhuamlpbmloDXI/AbWx+HjMvpbK4PjI1PJpPpbCoRX13WnGGX027jK/45NqfXI3FQzkwvxFRVnZ2eLMilSHMzYx1UKGJrQl6njRspM+NWFlK5PHT6Ay6Rq8aJe4Zl65pacDGbWF7KFkqaKt8an0IcG43WfvDOVEVGY8YTqouEg6O3p46dOOEUmOHxGcxKQwOd/AYD4D6CEHEcV2luIYQQQgYA0NLe6fKH/W5bhcw4GAyFhnYO3hy56mJUB6tNTU327X04FPAKlb+dnM3Z2hxNZ1LHjh5dbgjfvnYVQ3bnzu0W2vsHqKWtbTWRunL2hAfkMvG5VF7uGBh021gdtb2Mi2G5YENbre9kJjZ//MQJp4Buz8frOwc7WqMfvDP3EgQQctZmxvl6errjKwuvvvSCyCFe8vVu27G9s4E3kh8HkSBKDQ1RUdSJ2OnfsVMfMy5UW//Qh5+49Z3vnTm+rGJid3p+57O/XRMM6Hk5EbdjaEiWS68f+8Vtt6OogMGdex7ZN1S5oU1UR++2bKF08ycvvpZYyBcKrZ39hx57vFrMOIgYuzeyb9f20+cuvPziCzYOsY6ajs7utmi4Kv68WxCynFhXV+uwSxaNxjIzLlBTv29xUdaoy+sLBgIiayghE7FiY2vXf/pP/6G5vlZfTOtmxvGiPdra87U//bNYfA1T5Pb6I5HwBivqvFfhaMtjTwX6h/ZkckWnxxfwB7xuHTk9myjJ6du59+Hmtq7VeEKwOfyBgN/vq6ZDEO3Y90hTR198bU3WQDgS8Xu9vDVAVZDhfcHo17721bqGBsaylCqO591en2iTMAUcx/M8Z3Agh4iR7K7u7i6bZNNnSvfxGQghx/GBUI3D7QUAchzPG/gAZljO6fYINknVNI7jOZ6zQk722wURskn2mtp6jz/IMBzHc7q7HrMkiLZAuMbl9RECRFFk2U168ysWhIgTpbaONl4QrM6Mk+wmLnxBhmUd1VpJg5BhOTtrTmIkYhjRZrNesbi3ZDlmHIQcx3Oc5UjQZWac3b7BqjB6ZIk5wJa2tCXw6xGN+tBvFgZTbuk3VA+eqa6uriqKAiDMmsiMw9gEZpyiEELu0N82/KGo76r3t2acGZfL50uyXOZNVZR6UmbG5fJ540/HuGRF0TRN0zRopSPCZWacpbre9UB4lx4cjSzLapqGIDQlvQbdZdIYt1aGnTAIVfTs9V11X2sImfJbykbWWa8bvj2kZS6OGT4YFyq7wjBWg9BYpH3WBQHA98IgPTgaHQ4HwZjlOEEw+qGPNa3c8fMcx5jBgyQY8zyPUAXJZvquup9KpRLHssZbRpblMkSPUPpesN99BWGZGcfzvHEfjEtVFJZleY4zqdKeOVIVBSFkhfZZF8FYwxi/Z3h8cEjwPM8wDIMQa7yJKS13UQzDGLfGIFQ2WBEMUt9V9xNCCJnxW8rlHctM7ArGRkoBpRBC1gwfjKs8BDEMYymCY3lktEL7rAvfZxPOQsP3lrb0G66taNzSlqwiE2ZrhGC5WIjH4wqmDqfb7XKJRplCVJGVWCweCAZ5gf+AFwQIwblMOpVOY4ocTpff6zGYQEMpKeWzMkY8L0g2y21qq4qczaSTqTQnSC632+W0W6GKhqoq6cSazekVBMEK2TiqIueymWQqjVjB6/M6JElfZdH3l+FopDSbSsxOT94cn1A04A2Em5tb21saGN2nACgtlfKL8wsnTl56/KnHw6GAjnejvDgJYMXvFdbUfCZ1/fq1pZWYSqE/GOnvG/B7Hbrz4yghxULu9vDlIvRE6uqa6oP67GySNKW0urQ4OjqyEk9yoj3a2Nze1hbwmlOKU79XqhxfWT5z/ETP7oframsctioD4wjWlhfmJibGF1dikBUbW9pbmhrDQa/pnYQJBMfhS+dfevGFoq0m5AAnTpwKR1v/6Kv/3u8Q9MUjIdrcxM3XXnr5H773RvvAQEDX+QlNVQkhLCcwFXarhUxy9PKZf/j2jxtbmiCRU6mjtxayn35yf01QZ5FwpVSYn7z5D3/zX/0dhx5/8iNWi8bE8tzJI28++9KRPXuHFmfGLzpDuw4+8akn91fRJUppKr585sjr//n//C//61/+o9vnr3o0yrnEz199+dzF6w3tnfm1uVNnrx54+EO/9fRjrNnpqkajMRNfmJiZTWjS1774OYmDp998bXp+9eTFkSf29Uli5bMyoh1/42enz5y+emNcUUoVrPW/UxdOn1iJJ3YcfLLWb69onrM4P3v0l69v2//hh3Zv84p4+Pq17/z4hweHOgJ+j46mT6wuXr5w7sVXXptdWbU3a9bL/qHD1y5Pz8we+tinH39oWzEx/+aJcyeP/OIjj+0TGVit/Pab1y+cPHnq6ImzCi5iYjStwhSNXjmbyMmt2/d9+uOPqcX095/5p/mpm/PxvU0hkycRhplxy/OpdM7mr+1qb21ubulsaXSK3LXh24qqi+BIcUklvkC4t7eLY4nu75eFuZmxWzczBaWyAKA4kUjeuDnZ2dPb1t7e3tHV3NSUnLqZSGaKip7XQpZLFDKRhpa25lqH3Xqp4xTPzi7Ek7ntQzsaGxu6e/t9TkdyfiqRlavCjCurUChJTm97V3fQI1QFQfBeTdy8qQGmsb27qbGhraO71mdX8pmZhbjpNzI6NibiCRkTdyhSHjp8Xo9dkobnFrE+ujGADc0d9Q3RtZWFZ599pcJopHKpuDg7V9K08YmJmfnlmzdH1LQrXBPxeDwbglVTnC8WFxOFYMhvswksDyXJacO5XK5YUrBTrLiteNHe1NYViLachfNZ3nrRSLREppBTcKQmwDAMKzklgWfUfCJT8klstU4VeoM1Q75wU0vLlTf+xQrrNwCApeVl6Gjwh4IQQshwfq8ztVxcXU0C0GzujYxGY0FVFEDZu5NShmcQC0rFkq5ZGQQM393dheXM5XSs8stpMr760g++N5fJXb16JZXJppVnfE7h4BMf37NrZ1PNBg7REqJinAOA5Zhypg5kkCAQTdOwrrHCHwz7g+FcJnGp2ocG7y2CS4SUIOTK1B+IGBYwDCmV1EoZ7SaqpbUdAHBLLVbLgfcqJyvUDddfclZgAaRKqWT6jYxGo41leYgKd0dCqlGKAVs50sYMQcnhHNizt6GkyMXc0srajj37owF7e3ODS9rYuIQQixgJwrcSYgjVVIQQY7VTwuYIIQEhEQBS7msoJRgQAjnOWommVZfEcTIFRL3zkhOVQAqZTTiBaZhS5fPyDFqOrZVPRaQzmWKpVFNbh6pQiQna7M6ewR0qJrPjIwzL928f6qjzeD0eybaxHEXI2EQh5OSTyawsKxKEslzlPj+HAAAgAElEQVTIEt5uF8XKmXG/AkKc2y7YWRhby0ScPMaFkqIqUPC6bKw1PtgsolDQP1fC6UQSAEApSaZyGMDAJlQ3MvqS+cO1TrstNzF1c3zaKaCb49PJXKlvbzvPVWFVmuP4YE0EANDZ1WN3+1saG+prnBVUaIPI5/V0tzUMX7vqkxiPoE1MTLjqO71ep1g5T/VXQJCJ1kVWVuMXzp3389sKa3OxVMYdafI7BdPX7n+l1dLROXtxfHJ0eLa9Riuk5mNZm7+2odZv+o0M042DdfWR8I3r1984djLsZG6MzzGia8/2no0iTO8tyDCsw+HQne7Q3b8t2lIMeWwV7nnCcE1k7/79/3rkkoNVBajMzc7tffTJcMDHG1hOgBDxgk1AvKUSlwEAAMCOru6VeOLE6SNBSVuevpUp4oFd+xybhX2pQAyDJLuDY1krzJk7+gYvj87eHh8+c85dTMynMd9Y1xQNuU2/kdFoZHjbrn0PudyuI8dPxmZhY8fAjqEdjSG3kc4VItbtDRw8+JDX7dJnpi7aSCnVcdDOE4zsfuQpBQojYxMyYRq7djz66KNBjyFCD8Ny9c3dXljr91qOmR1t6znIiix3/Nql8zZXYGjPjt07h6r/+gNgd7iG9j5cEwoIXPW7MG+48YknHg9dvnjtygVWdD1++ImB/l6Rs2BmHIBOj79nYCgQadAIcDhcbo+ejfJ3WGT5mvrmL33592rDQX2WdJ+vY1jW6fHtPfBI97YhTJHd4Qx5nQbX2XleHNj5KIaCzbaJgCN9YjkhEm08dNixI5tnOdHt8XhdlmBM+gKhT372972hOnvlG0umCzJsbUOL3e3rHdyDGN7n97ucjs3os0z4qSzLuTw+l8c0DieEjGR3dnZWJVsSMiwXCEcC4YhZFhHD+IJWZddDKNrskTq7ab/WJAmiram1s9pevCVRsouSPRyp29S7bC2dbWlLVtGDo7Fq1cM2oLJjlWYa6Lvq/uaq1jzwLmjLsg9oSxXpwTPVTCYjywrLssWi0fQIQsh6/qqqJ5H1HVJUlRAiy3JFACJ9V91PmqZBCKHhlimVSqqqllFgG+8mysQtjLFcKhl/OsalaRqhFBhgvW+GNFUlCFmhfdZ1P87gg6NR0zRKCSVEV7nidztRftWMmwIAlDNmKjWl76r7WivbMq9lKi7LBcBdF6qW570uQikkhBBiqWiklBLznrgpIvehHz04GgWB1zQVMYxxrBPGGBMCADAFZKRhDDCu1JS+q+6nO5Qqwy3DsixC5arClRAcAaBlShXLmgLdMqh1RpWlcIlldpYV2mddZZ4qec+D3hDBUVUUUziFmnbnjB/P8+bENoSVmtJ31f1UKBY5M9iWZYJjeZSrNBqtQ3As/4oyZLDavrylkiwzFiM4YozLX0zv+ruF+rAtbek3XFvRuKUtWUVmTKYp1bBWyOcxoYIgCqJovE41xriQL9jsUrVyOyklqqJpGEuSzYgdrGmlUrEkK4JoE0XBeqmqgBCsKkq+UGA5XhBEYwnGpokQXCoWWV5kWcYKDLuyKCH5QkEQRM5AVc/3kRnfTvlsbHVlbn5BxcDp8dXU1NTWBI20oKbKibW1GyPj23Zs9+hNVTUkSnPpxPJqoqjCgd523WaUUiEeW52dmy+UFMnhjkQikUjYUA12s4U1NZ1KzM3OJtIZlrcFQzV1dbXODR4H3TQRgjOp5M0bN6LtvX6f1yIHaLCm5jKp4ZHx1va2UEhnzub7yzjBkUyPjfzi1VfOjM7YOMjYfNuH9nzhc79l41i98UjTayvnjh/7i68/+//+7X8Z6Hd98JNpQvDopdNHz94oMAEj0bgyN3n0yJsv/OKUz+vMFfHufQd/61O/VReoMh/x7Spmk5fOnHjmBz+yuz2ZbLa9Z/DJj35y77bW6nqlFHO3b1z+f/7z//Wl//h/790zKPKGpicmieYzieGLZ/7i6z/893/21UPB4GZwfg2TODKx6zdGR+dTf/S1P3MJ8PTRX67O3Tw7PLWvr0nUMeehZPTaxePHjrxx7MxiLC6rGqAAVP6zh69cTKYyHdv2BNyVHaoiWMtlEm/87NUjR345G1fb+g9UfO+7olg5d/bs7cm5T/3eV3qawjfOHZ2Nx35+9MwXf+tx3TZN18jVC6Ojo117Dz/1oZ2Z1enzV269/PJLQ/1/wsKqbRkuz0+eOXXy1Vd/NjI+nS0W37sNUAVRMnl75NSJo7944+jEzHKxJG+ST0YHnsTSXHwtiRzB7f293T093W2NNhZcujqqKLqYcUSbmVsoqrixqRFSVXfK1/TE2PWrV5M5pVK+C9aUbGptenHN43MHg159OJyylHxqdn41U4J7du3o7Ozcsb2fQ/DalWsW2oSmeHJianl1bfvO3R2dndsHh7wO28LYaCKvatXj4izMz6dzRU+ozuOEVQBI3FNUW1xaTqRzLR3tHAs2LxPR6M+Nr66WFM0bqXPYeI7ja8Iht9M+OTGj6WTGUcnl7e3fdvDAXpEDlU7NVUVeXVyYn5ubGB+/PXZ7amZmdm42kcrI6oadoYBh2Ghr9949Q+2t0Uq9f7tKuVSqpGLeURvwsCxbU1cvcvzq3Kxmnbxfoq0m0pmC1trSyHOc2xd0SiItJNcypSoSHBlObG7vfujgwbqAxG/CGUI9osDmcLd1dh9+9BG3cxPPYhudqWYLRRlQ0Xnn5J5g41gW5dJZXYlIEDD8gQMHsZy9euls5ZfTfDZ98cTxeKE0PHpzNZY4e/LInM/eO7i7va015NnQ2UJOsIXrWz4ZbZsbPToxawiYWSoWZYioTWARgABwgoAQ1Yp5lQDWhMqRZoioeQ0XAJRsPIQQIJZlGY7B+byM/TYAqrN2MjC4EwAwNnrdQul1DDe4YydR80uztxi0ic1iOKULQgZAvD6xIRRQYKBsMEQIUp2dD9U0NbEWi+WKmUw2Xygk4nFOK2SzOfVeVZ3vc38IoTkQT4QQggCud0qUAgphxeP9ZgoiBkAGwLujNQWUAgLLjlfLKUtl1d0VRAjQze8dDHNxXA4eoWQqW15tKeRLiqp5A56qMOMcLu/eQ4+VVE3OpWcWlg8cerwt4grX1HodVViUs9ntIqC5UkHGVGBgqVDAlPIuF2eRgREAgFinyNkZkM2WqIOnWFVULFPW5RQrrV/ym6AP4KkZZ8ZFJPFmanx2OZ6UODg9t5DM5Du7BrkqJOlC0Sa1dnUDACZuXnO4ff19/W217mrR4wWHx+cQk8nV21PzTWHP5Ph4viTXtbSyVRx33iXERkL+5ZXY8PBI2N4rp5eS2RzvqfE5BdYq6ye/WTIaM96aaCjgQ9dHzl+66rczI+MzRYwe394j8IbYrxAhQRB0M4UbW9ocnqDHod8ChIhlWNZAygVnc7c01K6txU+eOlPsarh86apK0c6hQauEIgAAoNa2tuXY2oUzJ2tdaG3+dipfaund5rFVH+CIEOR5gWEYPRtcmyUIIRIEXn81xAfJaDTyNtfOXbuwUnjx2X+iAIajbXse+lB/S8TQiASRKEoNDVFREPRND/q27ywfbtC9EsAJNo/XGwQG+hTI7DnwMOK4l157/dJxaneH9h84+Oj+7foNboI6+nYoGCw+/9PvP/MtgoTBob2PP37YCrNUjhci9Y1OyWaRUhwAAAAhywl19XUOu2TRaAQQhWqjBx99qqVnEFPocHoCgQBnrG9FrBht7vwP//HPGusj+p6F8RM93nDbQwdCBcXQhM3tC+3c93Bdc3tRVm2SKxgMOiULnesBAPA2e3vvts/5gplcnmEFnz8YCumsVGmuQjW1X/ij/1jb1OaqdvHGdUGG9wTr//APvxJtatqkibwJX3eCKIUiNn8wTChgGNZ4BWaIWIfLOzi4neM/6DLj6xIkd0RwGtwYZHnBHwx7/QFNwyzLIsRYZf3mriBiXG6vw+nWNBUhBjFWSdG2SY7u/h0syxlYnzdZEDKCzdHX38duWl0Ec9ZaIISsqUVCULWPh0KIGDPaHELIMCzDWOjg+XuFEOJ5aw3aEEKruQTK2HhjCyLvrwe/JWUyBDURsnbXrFlGKmbG6brqfrZAhewME/UWM656PrxLZrateTL97TWo+znz4GhMpzOyLLMMUzJcsA4TUkbFUQAYwzMQSzDjMIaqajxrxCgzTpaNPx3jUsusl1LJUjv4mqpChKzQPuvSz4zDGJe7XuPUrfW6iKYQvLaYccBizLhya5jYvKaIUgos5pIRZpxgIjOOmMeMwxgDXF4dqaAn1nfV/bTFjHu7tphxG5QRZpxdVWRrMuMghBzHVcqM03HV/bTFjHu7tphxG9QWM25LW7K6tqJxS1uyikxixmlaIZ/TCC2T0Yyvl2KM8/m8JNnZKjGdKCWKomqY2I0x4wAAlFKsKRoGiGH4zWGNGRclpFiSEcOIwibup23IE0oVuVQslTRMHQ4Hz3NWSEggBCuyXCgUEctJNhvHcZvhlAkvRz6XWV1emplf0Ahwun2RSKS+NmykBVWllIjHrw3f3rFryOtxV4UZl03Gl1YSRRVuHzBURZBSqiqluanbMrD7/MGaoPnlqY0La1oqvjS3nHZ5PC1N9VX1haYTscXFxZXYmkZAIBSpr6v1+9zVDUhK8NrqyuLiQjyRggxXUxuN1IS9bvMrVZvBjLs98vprL5+7OW/jIBI923fs/sLvflridWZsU0rTa8tnjx/7i68/+9/+/r+6PG4d46y+3YL1izHWRi6dPnr2RpENGoxGgtVUfOW5f/omDAzsPfAhC0YjJaSYz5x98+Uj12IDO3ZVORopuXLm2NETZ8YW4hIPqRj6xCc+9tgj+8Wq1hvHSvHU0V+8eeR4VoNKIRvt2vnohz98aP+g6eOEYWZcevX6yOjN+fTX/sc/dwnw1Js/X5q/dfb6xP6BFp3MuKsXjh55481jZ5biCcUAMy6RTHcO7gtWzozLphO/fO2lN4/8ci6O27cdrPjeb1Mhmxodvvryi88fOX5q4ECdEebVJglr8szE2C9//sqRo2/kUH1n32AVnSFYyyfmj5+/jpzhP/2fPu8S4A+f+dbUxK2RhqYdnYYYRQY1cePC+Oyyr6n/Dz5xWM6tPfvs88OXz/X1dYXdJp9iN/qBt7Y0v5ZIsa7wQE9nR0dnV2ujnYOXrt3Uy4xTZ+YWVApbO9oQNMSMG76mkxmXS63NLqeDoUBNxE+MxU8quRZbS1DB3RQN2m2CpZKzylJKhUQysZwsdnQ0OV326m6RY01dmrydKRFPqK63u7OtvbOnJZrPZMYmZ6voFQBgbGRY0UBje09HW1t370CNWyikE9OLa6bfyOjYuLa6UlQ0T02dXeQBAOFQ0OW0X5nUzYwDTm+gb0BqzadffvmoDmbc2uqqgsnE+PjU3GLT1BQru31+v8NhFza8fMJyfFNHj434hm8vLWYq9v/tQogNhCK79rk8zLJslwzZ2hxBAJwub1ff9gAfSZ9YrK4zGOPFuTkk2t2BoCTwAIDGhrpbqzNLiyvVdWxubh4KNTV19SzLsqwz7HfOxJXFpQToNnlWb5gZVywpgIrOO6/aXWZcTjczbv/+A1jO6GbGXT55Il4s3Ri9tRJPnDt1bN5n79uxq72tNeTZ0Dc3x9tCdc1P17fMjR4dn4lV7sM7FK5rCNVGC7nU8o2X1Kofp7+XRLuno9vd1NIyeeVljq3yS08ISeZyQGA5252deskhEqwVc4XqOpbKF4gN8XfpSqIkQCgXsnnTb2RBZhzQz4xTy8y4UiabLRTyyXiM0/LZbF7d+EBdTsTWdftNNrY5ghACaJGOAgLIQQQpfOsDhRAIYNWPOHIQqhCA9Q+N8hrhJnhlmBnndvIMSqYy5dWWfL6kKJo36K0KM87p8e5/7ImShpViZnZ++eHHnmyLuEM1NR6nFWeJW3qXEIMCAS+ZnCvmCuXXKZ3KIZZxbmxes3nyed0xTArpLAAAAJrNFAgFbp/59VTMYMYJo6m52aVYws7D6dn5RCbX1bOD4z54gAIURKm5oxMAMN7T43D5ent72yJVY8ZtqVIxLFvb0AyP30wsza/GE3YejY5NM7yzIVpXXceaW1pWbi7PTIyl+5u0UmYhlqE2XzQSMP1Ghplx4fpw0M8M3zx38YrfzoxOzCmA27W9WzAWjQgxoijqZ8a1tjt9Ia/dADMOIZblzCnTByHL8ixijacobZogQizHsdXKfCqLYdhQY0fI/UYmvnDh8lW/Hd2cWWkdaOpqa6yiVwCA9t5t1yZjc+M3rg1H5NTSWoG2NEQaI+YDhAwz4yT3rl27iFJ88dlnCIC1jV179x/ob4kYAnJCJIhSQ0PUpp8ZNwQAgFB/CgfHSx6PN0BNSBNDiHF5AwC5bbYqJ53dTxBCXnQE/H6Xq5pzQogY0eX/yJOPHz12/Mf//AwFoL1vz9DOXc21/ip6BQCobendtyt+9Oixb//3bwDI7Dnw2MED+zcDn2W874fBSPTgYx9p6x/SCHA43X5/gDUGnESs2NDS+T//L3/eGK3Vx4wzfr7OG2478HC4ZIwZV5YgSnsf+aQKJKfLcok4ZTEsH24afNrZaZOq/IUGAGps7/2YL7zvQymNAJ8/FPB7Nw1fumGfGK57285QXVMynYEMHwiGfF7PZvhkwkyMF22BsOgNBAkFDGJMYcbZnZ5t2/pZjqseM85VIzooNeH+DMMEI02AVn9t8H6CiLE5fA2SF8Lqeyg5nKJkr6mtJ7R8CNsCC74QOt1eu9NVq2GIELNpZD3zmHGsmQM3QpsL53qgIETGu5V1YxZnxgEATELkmaPyaf1qe/FuIcTwm1zz/MG/2So0snup+sw48LZtqA9cbzHjquXBlkzVg/tsWZaxpmGMK6i7dh9hjMuoLA1j4y9QmbJThmhtvICQvqvuJ0IIJsR4y2iahgmBFTLjAADwLmTFuA/GVW5YDWNLlAe/q3JamBXaZ12k/Pq9Rw+Oxmw2qygKx3HGGXiEEKxpAABqxkKLWmYxKkpF+S76rrqfMMZlJqVBlWRZVVUIIUQIVvQqQ0gIURTFCoRCTdMIIVT3WbbNkaZpyGIER0qpToIjy7KaqkIITdkuIwgBABBCxq1pCEEAUPkN3uSr7qdy7pvx38IgdGdU1MUpNqU9javcmyCErHBaf11mPSMTRSiF9/q+eHA0er3eJKWCIEiS0fwyTdNkWQYACIJgCrINYyyKYqWm9F11T8mKIgiCZDN6zk3TNJ7jyl1mZcw4QliWtYmi8adjXJqmsSwrCIKlmHGqpjEIWaF91lX+ZNPeM6uyUIexpS39hmsrGre0JavIzH0wjHH5/IvBr4byOA4RwzKoKusBlFJN0wAAxrHZlFJCsIYJyzAWrBhXFiHEahXjKKUEY4gYA9mNJosQrGkY3n0vN+MWJkUjpYSS+ekp3ub0+P02Qa9ZSlOJeHxtLZPLQ8SFI7U+j+uDZApSSlRFXl5aTKWzmEKH01VXVyfynL4VH01VMqnk8spKQVZskjMQCFohz+vtogTnctmV5eVMLsewgs8fCAaDIl/lXAVKabGQm52aCtY1OZ0Ovup5CZRm06l4PJZIZxDDBYJhn89rt5kPLzen3THW5GL2+Wd/UNM6sPeRxxpCutIdKSVYvXLu5MkzZyfmVwBgHj789MF9u1obaiq3RCmlOlZNsaokVxZ+/M/fn5xfLGqwLtry6d/+XEt9QBL19AjZZOzi2dPPv/yzkort3pqHDj78xGOH3HYLIejVUmF85NpPf/LTpWSaInHHrv1PPPFES735Z4UqEKWaKs9NT3z7b7/+1O/+cX9/d8AlVtMfAAhWR69dPHbs6MjUAgBo14HHDh7Y39veYHq3akKvUyrkJm4Nf+vv//q5n740OjGj6iU7aZoyd/vysXPXoKPmi1/80mc/efjs0V+cv3AhV6p433Zhbmbs1q1sXql0G3p1ce7oz19YyLGPHP7Ep59+Mminf/fN7y6uxPRsZlN89uSxc+cv9e174stf+Up3vWvq1vU3zlzRYWnzNHbj8oXz50q22s/93pc/cmhXOjb33POvEFrN5J5cJnn+5JFnvvWNn7z25lI8qZmQJ2JUS1Mjpy9cTSjil778B//Dpz46OXL5+NGj2aL56QQmROPiwuzlSxeTCs9xlGWI7jwMVVGGL57FSGhq6xno7x/ctdfNlGIry/OxdKWmbl6/eubUidV0qUJmHF1dWblw7mJ7b39f/8COHTva21pGzh6PrSVlreIuRi1kJqbm17LK/v17env7du8YYCG9cP5y9V+ut0TGb48tLCwP7t7X09u7e/celySMD19OFTVcIWvPRN0aHR4dm8hj1iFqEFArpP3dGr5SkLVoa09/X+/g0G6/Dabiy9NLCdNvZMaGPgWC5Ny2+6HG+qDDwKEvVVVv37pp9/jqGhvdbncgXF8fdCrFwvJqcoMWMNay6XQqmZwYvz1y48bCcmwtkSwUS9oGh2uK05n02MxyR0d7OBwMhGtqa+txYi6dzpWUihF4pVxyLVvUOEdHS73T6Wxta5cEYW5iQqvqyPMOEW1hJZbKy3393W6ns7ah2edyyMnltay80RbbDKcIDYTqegcG6wISz1X7ixEAAMDUxATk+Ghrq9vl9Idq60JuqMlzS3HTb2TCd2NDU1ukrtEmSadf+IaRJQqMyWo85W8UbE47AAAA6HZLyyUtm85tzAAtFQuTN0eyijo3v7iyGhu/eUNNORuaW2vCYZe0ga81opVUNV4idqfEcSxEkOV4B6sVi7KsaECqrKMp5XMlgKhoExgIARAkiYFQyaRVAhhkPEPWDBE1K6t5Al1OCSIIEcezjAC0TLaE3QL44FEqAAAA+gZ390E4M3Hz1e9ZZQl6LZUh/qDdUwbhQKdTQulsOpE1/UYmRCPHcRzHmYFHo4RSCN+W5YggBYBudNZE04n4L376r7Pp/PXha+lsLqs953UIj3zk3+7fZ99QNJYX1su/BEIAIIAQMvqS1QAFlEJA19fCYZk6Vr0p4HtFKQHgbWmlEEAIECWkml+OoigCPXz5TRQlFLz9tYQAAEo3gQRtQjSatSWIEPK5HEDFSkku/6WYKyHOJzo2mHcGPf7gE5/6TF7RXnn+ubnF1Yc//tvNYVd9Y1NwgwVMEMOznIeFiqxijAELiaYVZcQLPFd5HQhBlAQK8rKsUsBCoCoyoZC12TmLDIwAAIazs6yEQLGkUAcHiKZpWMWM3W5ClTHdeqtrsIzcTilDqFy4k3deKsiUQunODM5MWWJeXhbLss3NTflMKra8rKhqqZBZjGVYng8FPBszAG2So3v74NCuXT3d3R3t7YM7du7evbs5WuvYIJAGMk6HvSHsnpmdz2RyhWwmmYgros/plMTKj5mKDo9LZJGcXYqlNE1bWVgoKUqwrp6FlnnREBvyuZ0COzk1p6paJhnL5ovA5vG5BENYo187RaP1WFWW5+dVTSsVsivxDAYoUuMz/UZm7vMixBjJw+F4vnvb4I3XL07dHrlZ41Tza7ECaPIH6kIbjEYA4Z1T9vUNjazo8DhsHMdWkkyD/P7AQH/3reFrQTvr4bWJyam6nsGAz62jRhJvd0cjgURi7dyFSz3NkeGr12VC+rYNWOk1Z5qaG5bj8Uvnz0YkklmdTuSKkdYun51nqz18QwiskxjU2tU3unRu+vaNm7dr1VxiOSOHo9GmTWBnmRmNvCBwnP7alxwvdO040HL99vnLp65cOIlLudZtj/T0DgScFW/+7nroYYIJx4tMhZSr2mjjh5/82F/97T/+y63LKsaSw/OlL325LhzWAcuCDL97z55CIfcv3/4Hv9+TK2i79h988tD+ig1tpnq370xnC8/84NmZ4TOZbLa9Z/DjH/84b4FsIYSQzSaxDGuFo5JtfTvbxqffOHLsL//yulbKNnTu7t+xO2R2gSpgbjQ+/ekvSJ5g0KPTSwgRK9gPf+yT/UP7UpkcZLn6aFNNKKjjcXAcR1k9H7S8zR5t6/njP/nTtWQKU+jy+JpbWh12nbkgNQ0tjz3laOvdUZQVyeGK1NaFPOZ/bBiR5PLv3PdwsLYhmcmxnBiqqamrq2411TsKRep//0/+t5bedpdUfewlw9seeuRwc0dvPJlGDFdTG62pCW1Gl2VmNLZ3DzAsx+tOUgUAIiZcW+/xBUolGTKc3S7p4+3qJqkixNjsro6unkKhQAEURJtN1J/IJtjsNXX1Hr+/JKuCaBMFobr44PeKYTlvIOhwuXL5AssJoigKOqpuboLsduf2XQ+JkpOzwJYjRIw/FHa6PdFiETGcJNk4U5ls6zIzGh1Ol3EjCDE2yW6TqjaGQAg5XnDz5mSTMixnd3D2qmNK7y+EGEGUBNFCh3EBAAzLuj3mL5PoFkKMaJNE2+a2UvU7HuPSR3+zMApvS7+hevDYWGZDUEqNF76ld/fRTbS2rk296v2sEWL8txBKdZVUv+MDMcMH46J3m9cKzqzLmi7d8+8PjsZEIqHIMkKoUDBa1LLMGiz/xzgzTlHuHNGoyJS+q+4nVVV1puq8U8VCQZZlCCHDshu3BgFACGmaViwWjT8d41IVBTMMJsQiOxNlqaqqWayQ5nogvEsPjkaEELwrEx0ywRqE4C4TtQJr+q66rzEITGmZdSMVIarecbUF3rZyq1qM4Ais59L9nNkQMy6VTPI8bzNMRsMYrzPjTMGKYYwlm63SUU7fVfeUrCiCGS2jaRrP8zqYcYQQlmVFUTTug3FpGLMMIwiCpbj9ZWacFdpnXYQQQul7mXEVjI3Gm5gQAu8OSsatrQ8IFY0M+q56P2tmFI0ou6JvvrsOMTXog3HBu61qBWfWZUGX7tfhWshF3dIXVJaaumxpS+DXIxq3tKVfD5m3+09pPLbCcKLd4eQrz7FeVzGfTafT2XwBIi4QDNolG/eB5q9QrGmp5Fomm8MUSXZHMBBgGUNzWkJIPpNUCCOINsfGjll+cKK0VCqmkolsLs9wgsvt8UrBWhgAACAASURBVLhdVjjAocjy2uqKwxuw2UQr+APKXE9VWVmJeXw+u12yaDVVUEZNqsrpN3/pqmnqGhgMe3WmLFCMZyfHLl66eGtylhVcDx96tLezLeCrOMWnPC/XEUIE43w2dfbE0eFbYzJmmtq6Hnv0Ub/HzuvtESglcjF/88rphOaONrb0tNfps7NJwpqysjh7+sTxkYkpyRUc2D60e9dQwF3lZFqsafGVpdee/9fBQ083Nzd47NVPVS2T7NZWl5//yasfeuzRru4OdhPC0QwuDtYSq4u/fPHZb37rO6fOX8nLOllaBKvJ5YmfvvDyzcmlnr5tUT/33I+eO33+klw5oyWbTq3F47KKK90ITMaWzx/92ctHLrqD9dEa38zNS9/83k9XYjp5RJSS9Frs4qk3/9tf/c3RE+fjqQ0iRT44zU+Onjjy5tGLE9sGdztZ5eLZk8+/dqy6OUpYlafHhl/88T//zd9/a2x6QVYrJhJthuRS4dbw5Wf++9//4EcvT80vbxLBwYRonJ+ZPHbklycu306l1zRN0Y0bU2R5+OKZgoairT179+w+8PAhtrS2OD+7tFbxS3z9ysVjb76xnCzgyjIw6Mry4ukTJ5q7+gd37Ny/f29Xe8vpN15djScUXRzB+PL8hXOnX379WFHJK1jTNEu8WG8TvTU6OjMzO7Bn/+DgjocPHnCK7LXzp3MyqbgbM08j1y4dO3Hqyq0prGY0rFoigZGoVy6e+8Uv31hYy2QyKU1VN8knE6JRURRVI3UtXTUhj92mf+qrquro9Wuiy9vU0dXYEG3t6qvzCflsenHDzDhKqaqqiqJMjd8evnY1nsyVZEXb+A4eJYlE4sbtqd5tAy2trW1tHW2tbamZm8lURgczDpRbBlOHN9jSVOu0W2i/644onp1bSGTyO3fvqqur6+kbCHpcycWpRE6uIsW0UCyyglTX0Bz22biqU8bLoqQkK5xo6+rpsdvYzdsrMeG7MRSpP3DI4wuEZy6+YgTSjjFeXFx2DfQ5Pe7yOf6g37WqaMl4ZmMGqCKXVhYXZU1bWlpZjcXnZmcELRkMhV0ul03YwBEYqhVL8kpa8XndosgjDgqi5ERyPl8qKZqr8o7G5Q0O7Xmob3Dnz364lGIt8PHzLhEllSvlFBD0exgGMawk8hyPS4l0MWDnhCpFQnNHb3Nn3/LC3KXXv2eVKgmQ6RnY0dLejouJH//olc3zyYRodLrcdocTIaPcBEppQVWdDGLuLskilqEq0bQNFg+m8ZWF7//d30ynciMjNzK5wkws7bbzjz39mQMP7Wur3QDNnlCNkCIE6E41HggQYDmCMa6QknxHDqfL7qC5bNKMwq2bIEIVShUEmPKiJYSIAYihqlpZPpC5CgSCAIDk6mK1HLiHEOv3+7EiLs9tdJqmT+Yw4+6kuRl75RCELpuIMMHKnXUgtaRBwPDCBncFoNvrP/SxT2Rk1fXKC4srsX2HP9kQdLR0dAVcG1skRIhjGCcCWMOUEEAhxUSWEcuyjK5F9jtZIJZNM0CMjUE2AO580FKCNYoxEkWdVYDMcerORNBajYYQApu/0VLlakRvF8My9XW1S/l8OpGkNEqJurqW5sMR30Z3OKDN7uwb2okJnZsY5UVp+9DuznqPwy5x/EaZcXabLeKRYrFEoTYkAloo5ArIbreLOphxvwJCrNcpOXi0tLJW64oQNVuQFY2VvE5RX++zJYOyUDRyHN/R2zd9cXp6/OZ0nVsrppfSSm+nuzbs3aAFhmEdLjcAoKGxCfFSTcjv9Tor2DuGjNfn7e5svjUyEnBwCQFPT097Gjt9XtevZzRCJhqtXYnHr1y6FBQGisn5RDbvqWvyOXluKxqrITOjEUJkZFrGC+L2vY8cv/APV069uTw3Xlybl8VwtKkt4qt4M3rn/oP9sur2Oyql9NbWRR8+9OjffPtHawtjiCjJZOqpT/67SCjIGZq5laer1jj09A7Bvv7tq7HEsz/5fnZ5YmlmjHcEDzzyhN0KKBoIjK9EmC0IANxUrKSZ0fjhJ/+NK9jgqxy4WBaEyOYOfuozvz05PRVLpFF7R0t7d0tTVMfCmtPlcVDKsBU3nN3t6x166KusYykW1yjyB8J9/QO+OwUYdIoXxO17Hi/CQKSuqnUR7yVfpOHgocd94bp4MtXU2Fjf0NTR3l5tpwAAwBcIf+pzf9DZ2uQQLUHNAgBAxLl8Nb/zO5/taGvejEQcYG40Dgzt43jJrrtMFYSI5RuaW90+fyabR5wQDARsNkHHD2dZnb+LYTmn179tcEdDKo0BcjjdAZ/H4JIGy/HNHYMY8pvNONIhTrCF66I2hzORSvOC5Pa4XU5LELVcbs+BDz/l9oes840AESM5fY8c+pDP79+kRS4zozFUY0ISJi/agqItGDZuSacQYlxev8trGkkaIcbjr97veZA4XvAHw/4qtvi9xAtifWNrtb14pyDieLGhsWHz7lD9L4QtbWlLZW1F45a2ZBVtiBlXKhYRQvl83uDNCCGqucw4Qirliuu76n5SVRUAYLyUX6FYlBWlnEdRQR4MhBAhTdMKxaLxp2NciqpijC3KjLNA+6yLUKqTGUcIucPJNOwEfdt/zLJGKaWVPHt9V72fQVNaZv1Apq5tEFN8MEF33bCEM3dFKYUQWsql+5EBHxyNTqeTUspxnLDRDLX7CmNcftU4njfOjCszfQWeR5WY0nfV/STLsiktoygKy7JlCm9lkUUpQkjgeeM+GJemqgzDCDwPrYSEUlUVIWSF9lkXIQQTgt8zPD44GgVBYBmGYRhO77bBuiAAGCEAAMswujch1qUyDACAYRiGYTY+oui76n5CCJnSMizDMAiVkdgVRSMFACHEsqxxH4yr3BplVduXt4QQYhCyQvusC2N8z3fPQn2Ybv1GM+OsMUXdkin6dYjGLW3p10NmDt+5bAYxHC8YqhqvqUo+ny8Ui4jhXW6XwOsvlmxElGjFkqJqxO3Sn5tCKVUVOZfLFkuqKEl2SRIF6505BqB8mCpfkBmGlSSdiY1miWBcLObz+YKKqcvttokCa4F5r6apxUIhl89DhnM6nKIobMZJaHOikVKCsTY2MmxzByPRRrdeyBelJBFbmZycmF9aQYKzt6+vribk0PN+UEr1z0UppYVsanZhNVMge3b26TMCANAUeXV58dbN0dW1TDBS39LS0lAXYS1Cl3ibCMbZZOz29KrL7elsb6quM/lsamZ6cmJqpqDQ9q6e5oaoz+Oq7lcFpSSdiM9MTU7MzDKCs72zq6G+1u0wP8/RlGikpUJu9vb1v/vrr/ftf+wTn/p3+qKRElzKrv3rj56dXljxBoLF9Mr5SyNPPvHogb3bmQqfhqqqhFCO43WkmFJKlGLuyM9eOHV5QvC3GonGiZHLJ06cujKx0t4cOXf2TENbz5Mf/zfdTdbKQcOamlpbfv6H37k2q+7ed6Cq0Ugp1t549cVro2Mqa/dK4PiJMx8+/MThxw65dCc/myE5l3z91ZcvXrkRrI8WU1cuXB7eu++hjx4+UOlr+UCZ0E+vLM6dOPL6Pz37ws2x25lsVtO7Fa4q8uiVMyvpYqS5+4nDj3/kox/Nr05OTYzF0sVKTQ1fvnj8zTeXk8VKAXZYUxKriz/85++/cfz4+MxcOqt/y5hqpavXhqfmlw8dfurQhx/bP9SjFNNHT53XbXAzpMqFsdHr3/+nZ85eujK7uFIoylV0hmAtvTJ9/fY0ED1PPfXkY4efrHPDxbmZm5PzVfQKADAxcnlhNeGubTn8+OMf+chHYTExNTaylDC/RJ8J0ZjLZdcSSdEdcrlEgddvUFWUkSsXkehs7e7ftm1g5+79QQkk1+KLq+lKTU2N37529XIyJ1fKsyFYK+WzK2sZh9Ph9bqMbGPL+fTMwkpOZQ4c2Nvb27d316DEscNXrhMrbY5jVc5ms2uZQiQSlCSxukkEWNOWpseSBeyLNOwa2t7XP9jfFi1kM2MTc1X0CgAwNjKsENTcNbCtv29o195aj5hPxWeXdFJ230cmRKPt/2/vzKLjuM47f++ttfcd3UADaGwEQGzcAO6iRJHaZcu7kziZxJmcTCbnzMlDXuch8zDPc2bOJOOcjCzZiu2MYymObVnWSokSKRLgTpAESOx7A72h91ruvfPQJCRbhNhdVa0uS/170JFwdL/6+lZ9VXf57v+zObt6h/7su9/t7Wy2idqHvqqqzs3OWx1OXyAAIUKs0NTgVmV5vWwFR1WR49Ho6urq8vLy0tLy8sryyspKKp2VKxAyhYLFdvDhx5987JG+HRFtP6REIZ3MypQKDp/DwiDoDYQ4ho2vLCvURNEIIAqEwo88/uwzjx1pbDDs2Io2sKquLC6yVrvT52cRghC2hMOqoq6tRmvr2NLiMmK5hqZGCCFi+QafiwF0ZSVm+IUMmDeGGsPBUCOEDM/pskYoTRUKAscw9w6Y8haOFrBcLJZpIBZdefmFF5bSuStXLqc2M+s57HMIRx9/dv/wvkh5ch6cIPqCzYcC4aWJFMPMav0pAAAgyUUZQSLwpZOpDMciRIlaVAngkFlEmASrs7XNEQw1zF5drHlyaekBoDzD3lt55q0spViWajl+BgCki0XqhJx4N5uHs7AAUqlQ8QTqgRgQjQih0jdW592EEFpZjqGU3pP6JyqBAKFysyigaLXtGBj0FaRUIhbdiO/sH2ry21qagtYKzo9DiCCLANS9fs2yLAsAIoQCAEuZ5RRCaBaJ0BIlfRCWYUqClTV3xspyiKi/+wDUeofDwrISBQTfHWFRlUAKGdb4hSUTpQsxCDUEfPmClM9kAQCAklQqi1wBp6vMHT9otTn69w5LKl6em+J4cWjvSFeT0+8POCzachR1PaGi1SFCkCnm8wq2skw+m1EJsbg8LNT72vq8wiDk9/vw7el8Nlt6hSUTm4hlXB5XbR3zed2rGGdTaQAAoGQznccAuCsv1vRATBSNLMd19fScn04uzc5uRPxqMbscz0Wa7KGyNeN4QQxH2gAA3d3dgtXR1dXV1eislXq8aHf7HJZEIjU5Nd/a4Jq+M5WXlZbOThbW/CNkUhiWbYy0MafHE2vLK2tRC4cmphdYwdPa0lhbxyIdHas3Vxan72z0t+BidiWWQXZ/c5Px02wjoxEhBiGk+WHjBWHvwYdOX/rBtbEzdl7Nr8+sFfi9DU2tDRW/Ggd274t05UJui+ZxIYQQQV3lu1nR2dPZsr628vLL//7w/r4zp04RwXP08YOmDEUIIUIQ1lYTHbFcqG1ng+3XK3MTr7/tbvawZ69OjRx7bKC3q4ZeAQD694yM3fjX62MfhBsc+fWZhYQ02BbuaPIafiEjo7Gnf7evpVXzsipiOG9T51e/8uz1GzdvjV9DrPCNb35j92AfX3meXbglggnmeS27/yVEmzfS1s57dcwNINx94Kjo8IxeujI6NuZt7hkYHNo7aDKtFwAAABAxNndjbw9uDNcyMwFCxAj2L33169euXZuam1qZg8ef+sq+fXtCWsuBGoU72PbEE4+Hrl69ceUCwwmPPfHE0OCAWIUxl5HReOT4k4LVpbn2JYSQFaw9/YMefzCe2kSs2NLa6nE5NQRU2cUCtsXpax7a7dqh6Opxlzewc3C30+vP5CSHyxMMNrjs5qtUBQDDsN7QjiOHw1ZrjQXjIGJa27tEmyPSGVMwCDWFA36f5lK2RsHyYkdXj8Pl2bERR5zY2BT2eT3VGEYYGY2d3f36jTjdPqfbV+OhCQCizdNsK3e+uh0My3l8AY8vYIhL1QMixuZq6KrxWsldBIutJdLREumotSO/hc3ptjndbVUe2Zgug7lOnS8s9WisU8csPHikmslkJVlhWbZYbk7MtmxpxkEI76uZVRGKqhKMZVmuyJS2VtuBVVVBqKh7A1GSJFVVIYQIoYqSRSGEGGNJkvTfHf2UykibreKIqqoEITP0zxaEkK1cgo/z4GiUZZkQTAjB92tfsROEAABw+dW/P8UaxoTSSk1pa7WtNUoJxvp7BmNMCIGV64NACCml2Agf9FP6CduJvtQKSggBwAz9swUhhNzv8XtwNLIsqygIImSI9FApGRIZYQ0hRAlBCCGEyr/92lptB4TQkJ7ZcobSCtQYS8KEEEJkDmEoBCG6R619+QiIENoq+GsOIIRQVT95ox8cjS6Xk2CV5zhR1KvRsDU4FARBv2YcIQRhXKkpba22o1As8jyvv2dkWeY4jmjQjCOEYRhREPT7oJ+SDqUgCKZ69CVZZhAyQ/9sgTFWVPWTJ4FN9A6rU+cLTj0a69QxC0bu/suyBCFiGFZPuiMlRFZkRVYgw4qCULMC9JQqqooJNULljWJVxQQgBplB/uy+UEpkWUUIcfoOqRriiqIqsixjAiyiyLIGiFAbBaW0WCxyHM9WJz3IoK6nlFASXV7mLHaXx2sRtJqlNJvZjMViyVQa8WJTU5Pb6dB5iFkbUjGfSKULMumI6C1KiVU1GY8WMWez2T2uiqumfwZQQor5TDSWFi2WULDGBZilYj4ej8ViCUmlwcZGn8djtYpmCEdKcLFYmJtbDDU1uVwu82bGqaqcSUZf+N7ft/aPHH/ymUiDptLclKpy/s1X//3K9RvpoqpK+c6ho48+fGSot+MzfjkSgm9dPvvhxdt5xvO3f/1HukxhdTOx/vJL/0hcO/eOHDiw23RZ45TSYj47eurVMzc2egeGvvbs8Zp6Q66cO332/IXp5Q2Bhaw99MQTJ48e3MebQPYyl05OXL/0D8///D/8xXePHB4xaTSmU/GpiRtvv/X2qffPnPBGFFXjPp6iSHM3L07MrtgbIo/uHZSziVdfP30r4Im0NleaiX5n4sZmOtvWu8trFyoaNhOC85nNcx+8d/rdt6ZW8y3d+yv8Eb9FIZ+ZuTPx7ttvvvHWqe4R585BWY+1aoBVZXVp/twH75069caG7A211vJlQQnOp9bOjF7JKcwzX/6KQ4Cv/+qXd25PhMItfe2hGjoGKFmcm7o4du7dd09fGZ95LpOtkrKRAa+cZDw2MzOTkREAKoRYswiTIss3L49JlGvvHjx86NDRY8dsILe+urwSS1dqanpy4vLFi4mMhCvc4ieqnEnFbk5OFxWJ5Ri1Anmr+5BOJZaXlpbXUzyPIAT33fCtLaqU31hfuzU1ywssgBBjvYUo9YBVZX1heiWesfvDR48cOXjocHeLPxmPTc7UWDMOULy0tDS3sMSKFlWVSaVKhGVjQDTKKhasjie/8o2+7man1uNUAABVUW5PTjrc3lBzM8/zVoevNeiWi8WVaLlSeVhV06lkIpGYm52+c3tyZW09Hovn8gW17IeMYIyx6gxGjhw5MNin90MhS7Joc+468NDh4Z1+j6bRe5XBqoJYPhTpeerxo+HGGp81waq6PDvNWBzeYMhhFVhO6O5qx7KyuLBcW8cAJQSw4daO5557xuuyVG9h0YCRakdXT1vHDoZhfmGz6hlLY0I3UplAFyfY7h4CtDkt6TzOp8uUkaXZdHL0vdPxQvHq9RtrG4kP3n1z1mfr27Wvs6PdX97yCSfamiLdf9TSvTx5emk1DTJafwwAAICm1o7GlrZcZvNns+8kTaVOdQ+Lwzsw5N7R0zN37XWe3aitM5iQjc00EDj+3gNgd1gIVu/qJNUQhj9w6DCWc9GlO1VdFTcgGhmGKSV26dWMA4BFv63VRiisQIqOKoocX4+u54qpzXQum41vrLOKNdyelZVyB5wQQsgwPAMRQvrlaxiGoRQxTM21EbcFIsQgyGEWVtLR1XOHhQgC+PEi2BCYQdULsiwLCVvtvRZj1lQN8RIh6HU7iaxI+ZJSJc1mC1D0WR1lCjFAq83Rt3dfRFZj0SXRsj60Z6Qt6GiJhB3WisbPRva4efbKtscsHjIIetwOMrsm5e+et8hm8pBlrA5TbAt9Bney1lu9H4Nl2fb29pvxzfWVlVxXiMiF1Y2Mr0tsCLjLMwCtdufQyAEAwOr8lMuzMnLwUE/YXSvNuDqVwrBsY3MLODeT2oimMlmRhbPzywzHNTaZq45Q9TDySYUQQR2DMk4Qhvbtz6TWJ29cmZmdnbg2tpCUHW5va6hiRYzmSHvvzp1uK6/ZHQggglC/xnHJGITIbKf+fhu45WINnWBYrqmz3wKljcXp8Yk7i/PTo9cnBYu1b4d5VDkgqua8w8hvo78h5Ha5Oa1JQyzHt/buObZ/7er1Gy98/wVKyIGHH9s/MmyvPLNncM8+VcWi1YoYjT3HChaX2xOgBhQ/RQi5PAGAXFbRnKVUAYSQFx1+v09P6VgD3EBIcPieeeqx0bGLL//khwhCT+vAvuGR9ipoJWoBIpYXmsNhu81apeGWkdH46JNftboCXrtGvTYIkWB1Dh84HGqOJDYzEHGRjq7GYECDJqrFqnem4fJHhkccvZIB3c4Lll0HHpOh0+urcdLZdiCW84X7Hn2k2eEsc1JQJSBiuJ7+XXa3r3dtQyWgobGltbnJwteyeOMWEHFOb+N3/uQPuzvbtb7kH4CR0di/awQixDA6bEIUao4EQmEVqxCyHFezjGGrI9Bh81JqwNVZlot0DQKKUK0y4B8EQqzDGx5wNUJYew9d3oDD7e3qUQkFPMeZ5+AyRKzV7j569AjLslXarjIyGjnemJEYw7KMEUeB9QARYo16DiBkWZOOUbdAiEHILOdLEGJ43izOfBwIkaBbqvdTMMuLp06dOmWpVJVEkPSLrJW0mIBBkkGYEEIIJoSqavkDB22ttqMk/qW/Z9SSShWEECFQdql2CCGAkFKqGuGDfkoqZEYpgBlFSTvLDP2zxXZ6Kw+Oxmw2W1JtkWS9RxAIIXc7BUKkOyBVRSGEyLJc0dRCW6vtKGlSQt09I8tySdsSQUjLdwzCkoKjLMv6745+1HtxCE0z2QP3vgFm6J8tqGYFx9KrjtKSEJ4utoTr9JsC9+TVKnVLW6tPt2ZIz9x9WVa4bAWN88EASp5QCs3gzD2ocY+cUWynC/jgaAwEAslEQhRFh13vZpSqqpIkAYM04/L5PMbYYrFUZEpbq+1QVVUQBKtFb60bSogoCJRSfD9hv0+BEMJxnM1q1X939EMJMaFmHCGEQchugv7ZAmOczeVURfmdv5toRFGnzhecejTWqWMWjIxGQirV5t0Wapw4v9arqypWDTitTykhWFGU6h0Y1w+lRFUVU62FUkqJmfzZoqq9ZNgmO6UklUiwnGCx2XQem6CUSEUpHk/4AgFB4D/TZBxKMcHZTDqby1EKRavN5XSyjMYaAYRgqVBIZ9IFSREtVrvdbrWIpjrsSClVZCmTyeTyeYblbXa73WZja58zRBVFTsbjdpdXEAS2SnloFUIpVRU5Hks63S6L1VINn4yJRkqwKhd+8dMf+1t79hw6GvbpShOVC9mpiYnv/+Df/upv/nNHeyv7Gd4LgpVULPrKz/51ZnGloIJwS8dXv/6t5qBb5LV0VC4Vv3r54q9ffzMnKQ5v08FDR44fO2QTTZF1WQLLxalb479+9VfLsRRkLbv3HXj00UebG2pcV5VgdXVx9kfPP//I1/6st6fL66hi+kv5qHJhdXHu+y++8uzXntu1Z5CrwmNpwFtQKubnZ27/v5deePnnvxi/PSPJOjYSKU2sr7z/7lsv/fCH7569lErntA0KoqvLczMz2YJS6aAiFl059+7rM9H8zqHhw8O7OJx58Uc/i27EtXhB8eWxc2NjFxrah5544smAldy5dfXs5VsaLFWP2dvXL10Yjcni8ROP7+6NrC3NvPr6O7UdUuezm1cvnPvpj//5lV/+ZnktptRUOOsulG4mNi58+P4Lz//TW6fPrcWSVRqrGhCNG9HVa1cuTy2up1JxWSpUKtP2MSig6vj49Rs3byUz2VQqoWjNn7hz68aF0dFYuogre7Lo+trq6IdnG1q7du/bf/jQgY7Wpg9PvbkeSyi44h+lSrmJ21NL0dT+w4cPHjy8d7BHKeTOj14200yITk1OzM7Od/Xv3b//wOFD+0VEr14YzUq4wn4zkrnp2zdu3ppf2chlE7Ja8fu0KlB16vbkpStXk5lcMpWUFcW8mnHpdDqVzrT3729rbXDZ9aVHEzW6HhNszt3D+6wCqHT+QggpFgr5fH7y1o1LF8dWN1LZXE5WlHIXUChJJJM3b88P7Rpsbg6HW9ra2jvzK3cSqUyh8g++lElGE1mFse7u3+HxeAYGBh1Wy9StW9olLg2HqguLq8l0YWT/Pq/X29Hd5/c4s9H5WFbS8PYxio2NDYL49t7B9rBDNEnuOMWxRBIDZv/hI26HUD0xCSM043bsbI502uz2W6d/ouEs4seAgOGfevY5ouQmb1zRYEmWikuzcwVVja5vJBLJhblpTnKFmsJej8dazmyNKAVZjhaIw2kXeBYykOMFF6cUcoWipLoslfVVPrtZAIhaHRYWQgAsdjsDYDGVkAkQkQmElwAAWN4sylkM3W47QhAhXuRYASjJVCFo5wFXm7Wc4YPHhiFcmL195uf/xxS9BABA/EOPnDh46ODmxsL3DajLsi0GRCPP8xzHMXpK4WwBkcViJYyqaQ2TbCY23v7FK8vp/KVLF5KbaYl9xecQD594anjv7laxLDkPSikGAKKSThkEEEIECKWg8vESpZRCQLd+CYQAUkrNtc9BACBwKxuvpM9GCSE1/H6LFktJFqRWDtwHCEVR5BBOV9kpA6Lxo/RrI8KRYSDQmHMMLTZH35594aKcScVXohuDe4Zb/PaO1ia7tbxFOYg4hnUwUJFVgglgIcFYUhHHs0zloxOOFzgAkKKoFLAQqIpCAGAEkUWmUWmDjMgwIgSyrALKA4oxpiphLBYO1e7Y8b2sOpP0UQmIEKx44lQ5JtKM0w10uDyHTpykFKTjazPzy4+ceKK32S3wbLnHNRBrs1qaPLZodKOjKcATmk1vFhmHzWbRMIGx2F0OFqWlXDyd89nFxMa6rGB3Q4iFJ5MEVAAAHC5JREFUpnnQEOdz2td4ZnklGna2yFIqV5AIb3c7RJNs8X3RMDYajdTN0GALQsiyHAAg0BCUMHTaRJ7nKqkAibwez86etvHr481+Z0FUFxbmLOEur9tpqXy/UbB7G7z29Y3167emhzobb968kZeKXX195liXAAAAAJmWlsaV6NqFC5c6A9b02lQinbWHWgMOoVpSExX4BiCE5nlx3aO60n9GRqMgihzHMQY4CxHDWq1WhtEo+L3/yLHdsuLw2JkKB71NLZFHn/rSiz/+t39ZvEkJAQz75//xL8KhoIaHEzL8gYMHJFn6l+f//lSDN5FId/fvfurRwxUbqib9u4fTueLPX3v1H6YvpTdTgab2L335S7wRt1AnCCHRYmVZxkwBCSFCVquFrdrIwchoPP7EVxz+sEd35gRi+abmjr/8yz8Phxq0fUkcLjelFKGKHyuL3dXVt/ub34DJdAZT6HB5+waGXA5N9UUgbOnofpgVg62dKia8aG+NtLU2+jRYqh5uf2jP/sOC3Z0rSIDhGsMtXV07zPD4+/zBb/zxf+rtjNgtZkldggzn8jZ+5zt/uKPj90EzbvfwEYbjRd3dBxHnDYSefvoJj8et7S2t+Vw/w3JOT+Dg4SPpTJYCZLHabDbtGYk2p6ezxxZqbskXJIvNbrVYalKn+VPgBEu4JeIPNGymM5xgsVqtFtEUaWhOl+ehk8/YHB7zyFVByFodnuMnjjscjt8DzTiXxyAVWoh4QQyGRGOsVXpxCHnR6hfLLP7xAFiOd7m9rtrKlH4qiGEtNofFZq6CdizH+QM1raD6SSBkWD4QqKIobs2z9evUqXOXB38bS2cWS+i82JYRY62V1Naq2urTrRnzW7RusZWkaMyQz0mN6xADMadL9/37g6Nxc3NTkiSWZQuFgk4nCCHKPS0Q5ROiIJUiKwohpFgsVjRL1NZqO1RVNWTFu1gsKrIMIWQYpvwjzhAAiBDGWCoW9d8d/aj3DlWbKpNGVVUCoRn6ZwtCCL7fiYjPVE+1pLcJAFBVVX8wlKypGKNK5MC0tdqO0hF1Q/RUccmfCsX34T2dBDPohRJKASFYVYmZopEQAiA0Q/9scVdZ7xN/f3A0+v3+zVRKFEX9qlsY4y3NOP2yYoVCoaT+VpEpba22Q8VY4HmLbs04Qqkoito041iWtVqtZtBEo9ksyzCCIJineAYAgFCKELLbTFGStQQhJJfPf1Iz7sHRiBAqZSAY8jUrDesMsVZS2t6iqq22tWbQbylJfWib2dy9NyYIAHgvV8UMzmxRykE3lUvbvXAf7KKpi4CW/lmhg9pabWPLDFXpTZSuUkcPJnph1KnzBcfI3f98LosYluMFfWeOAaBUVdVsLm+321mtlZK1X5yQQiEvyTKlkON5q9WK9C0RUkoVqYApYljWbLk496BYVYuSwjCMWOtcHILVoiRJRYlQIFosgsCzJlAuVxVFkopFSYYIWUQLL/CVpkCXg1EPB6WEjJ4+ZfU1tff0BVy6VjUIVqKrK7/65ZvPfO25xlDDZ3m4h1JSzGfGzp6+dnOySNj2rp0nHn3EYeH0iBqqijQ1PhaXbcHG5u52k+WXAAAAIBhnYkuj1+Y9/sDI3v7aOpNObFy7evnC5WtZCYwcfmjXwM7GBm+Nh+KUbqwuXLt65dK1m6zFdfDQ0b6d3T638ctmRtRpwmpyI/rBW7988cWXPhy7mivqWkqWCrnxK2M//dEPf/Lya9FYUttR+WwmnUwm5MrViTfj65c/PPXauxdYi8tt46ZvXvznl1/bSKS0OAEApSSTil8bO/O9733v9JkLsWRGm52qIhVyC9MTLz7/j7/6zVsz86u1dIVSIufffO3X50Yv2zzBHe2hd3/zqzMfno+la7xVmIkvnzr17pmx681tXR4rePvtt947c06ugpidAdG4vrZ8YfTs6XNXpmfupDZTOiT3KCDq1csXzp49OzE1s7C4VJQ0Vvm6c+vGhfPnY5uFCsORbqytnvvgtMUT3Dmwa9/e3Y1+1zuv/Xo9llA0vRVS8Y3xa5fffOe92fnZeDJVlPQmPBiOUszNTt9+9bXf3J6eWl7bSOfyNXSGYDUZnb9xe1ai/L6RkZHhEQcrL87PTc2t1NArAMDM5PXFlSjvCAyPDA8PD8vp9dk7k6uJrOEXMiAak4n4wsKCKri9XrvNqm/oS9TZ2dlkJudvCgs8rXT6ubUPfmv86vmzZ6KJrCwr96rUldV+I7Zx5drNfQcO9g8M7Nq1Z2BgYOXWhXhiU1K0vGIym4mVldVoqtDaGnTY9e5JVgNFLmysR2/PLrZGwg6HrbZqdqqqrMxMZlQm0NKxd2igq6d/ZHCHXMhPTs3V0i0AJm9cp4zQPbR3Z/eOXfsORAJ2KZucW0kYfiED5o2h5rYTT3kCofB/mz8vcvom3JA5dOzkoSOF1cXpX/78jUoXTwjB+UxWpTSTyWQy2XQ6k04zDrudF/iyJn5UyeULywnJH/BaRIHhoWixOWExk8kXiopdqPinuXzBww+f2Hfo2Fs/+x8ptjZHUj4djrf2De3969Yd0upo8jdTtXUGY7yyuMLZ7A6fr/QibmxsGJu6s74Wq61jq8trwBXxNTQAACBkAj7n5mp+bSUOdrUZeyEDotHhcFqtNo7jdGcnQoDYULABy5no0mzlzUlsbfmVH/xgOZ27dOliajOzmlF8TvHIyadH9u2NBMvQjCMUU1KAgGHu/hSIIMsRjLG2kjZ2h9NiteezadNu2bK86HJzvMAvbtR+3ZJSmlcVwkB079XJsIgCjNUaj/ALqkIgRPe+NIhlAKCqYnyxZAOikWXZUmVSIyQ4IM/zmHKaTEHBYu3s3ekpSLH1NUGId/f2h3225lCDtUwNTIgYyFggIBjfPWpCqKIghtEoT8kwLMMAmTVVEvVvARFiERJ5riRYWWNnILTwHCQyubf0oCoYAsRyNT7+L3JcEQCi3lW4xgqmFFbDK3Nuf2kDOpzuA488qhK6GVubXVg++sjJnrDb4bSLQnl7aAhZRL7BIaZSGUmWLQhIhXyBihaLwGuqilOnIhiEAgE/vRXPZzKYUAaBeDyJGMblqXGVngafd1HC6WSKUgCoupnOEwo9XuO9+lzl4jAs5/L6fH5/qDHU1NTU0BDwB/x2m7XcFALIulzOzkjD9PRMNLoRX19bX1+D3iaP22GpfNJYp1IYjgu3d1Ipn1hbiSc3M+n07Zl5zsJHIk21dSzS2UkUaXFmOp1JJ+Mby7EU5bhIs/EiAJ/PV/7I4WP9hWIwYGcqTB0Ih1sfPn7ypV/8Krl0mwXyenTjqa/+QajBz9Vc0fALAGJYX3N3T4tvYubW9/7p/wadzLmbqw+dHNrV21Fbx/r2HLw6uXRt9J0Xi/FCYjmaY0aGelsDTsMvZGQ0Hjh60t3Y6bbqLVQAGT4Qavnmt74eDHi1RYE/ECSEcELFMzaHxz80cvSrhM/k8iqFHTsG+ncN+z0uPbHI8WLv0JE8DIbLWUmqBYjhPMHOgyP2QKi5hm5AiFjB9vCJx5oi09F4CgD49JefGxjo9zqM0SjSjMPXeOz48VC4eTNXcFg7B/a39XTvEHRuH9wPI6Nx38FjvMXh0B+NiPM3NH3lK88GvB5t0ciXOVH8BJwgBppajh0ToxsxTJHb628KNehchGE5fkffiAotNru5lKC2QIh1BdqH94YES42fewhR+45ety+wsRErqrQp3OxxOfnqFYUqD5YXd/T2+RuC0fUNxFsbQyGXsyqycUZGY0tblyF2IGJsDtfgYG3m7ohhfQ2NvoZGowwyDBtojBhlrRpAhCx2b0vtjysDAADLCYFgUyBY47ni7yCI1lCTNdTUUtWrfK5WcerU+b2mHo116piFcjXjGIYpFIs6L0Yw/kgzTrdqkKwoBGOEkKIo5WceaGu1HXc143TbKUqSoigQQsQwFdWKLGnGFSVJ/93Rj6qqhFKqQ+u9GtzVjDNB/2xBCMH4PtWyHxyNkiSpqoo/FkiaoYSUlNGgqkLdkm0YY0qIinFFprS12o5St+rvGVVVMSElBZdKYhFCCAkhqqrq90E/pSdMrWoZp8ohhFAIzdA/W1BK6f0evwdHo9PpzKTTHM+Lot68Z4IxlGUAAM/zyIgD3QRjURBghW9iba3ui6IoPM8LWpdwP26H4zhKaUlLuvyGlFKGYQRB0H939IMxZhmG53lD+tYoMMYIITP0zxaUkML9Po8PjkZBEPIMwyDEsXoXYDGEJQ9YltUvoKggBChlGKYiU9pabQeC0JCeYRmGQeiuanjZH20IIaUUIcQyjH4f9MMghBBi2bLL134mIISQEffIQDDGECGgIRo/Jndo5PDDAPXEey5VZEpbq08xBwxRgtyyUOGHsfT/V7fGZyUY2bfGAU3m0nbOmOgdVqfOFxwjP9+yVISIYRhW2/mjj0MwLhSLomippE64kVBKVBVjQsUyT2NtYwarWJIlVcUsx/Ec/9lL4JUJJVhWMESQr/XxJUqJIiuyLBMKBFHkWAMeJ6OghBSLEsdX6z4a+KzThZmplZW1nKS74AEl2Wzm8oXLmWzOeCWg8sBSYXV19c70gh4jhJBUMnb98thbb719dXwiltw0U6Gkj6CUKMXszMz8yspGrX0BilRYmp/+8Ozpt069N7e4ki9KtfboHpTKUvH6teuJpEbxtAdiyLeRFvO51fk7//S957v3HH3smWcdOsobU4JX5qc+PHPmx6+8/3f//b/2aUoIVFWFEsqwnIbXKqVUkfJnT7124foc42we7NOe7jc3cX1sbOzq1Eo45L1y+XKka+fxk493hM1VbJxgNZ2Mvf3rl68vFHftGW6r5fElSjF+/63Xb0xO5TDjEMClS1ePPvzw0cMH7WKN12AowbHo8qXzZ370yvt//pffPeLzmzRPNRGL3r41fu7c2PnRUVuoU1Lus61ZLhTfGr9y6cLoudGL127cyubz2soaTk/eSqWznX17PY7KpJYJVjKbyTOn3zt/7r2p5Vxjh/ZlcYrl8evXb05Ote8c6W0LTpDz66uLH1681hE+rtmm4WCluDg/d/aD90bPfbCcdTe3ddfQGYJxLrFy6drNnAxGDh10inDll7+cnppqam0f6grX0DFAycydicsXz4+OXbhybTy5manSkM0Izbh47PbkxOxqCiLMsrpUuQHB03duz84vSAQgpD2qJ8avnTtzZn2zUKmeDVaVTDI2dunKZibDcKyegaVSSN+ZWUgVyNPPPnX4yNETDx+yCczY6MVajb3viyIV11aWLl65ThGECNW25CjB6vrC7dVk3htuf/zko0ePPbq3pzmbSkxMzdfQq5Jniwtzk3emigRCSCpK0KgII3RxBGt79+BDT337f/3drNOqcw2ABMIdJxrDxVzq/IdXtSk4AkpTyURsYyNXkGRFQYhD5W8AUMrxwoHjz9jw0uXx+XkdIn35zXimSIDgCrptCIJgYzPPcOvzUyoFHKy5Bs1dKCW+YNPxp7/uRwsvv1Pjh15VlMXpGc7mdAeCHIMAAB2RyGR0dmmxpprLAABAPA3NRx4+6XMJ49emqreoZEA0NjaFff4AJ1h4vecvIUD84OAAljO3xq9U3pzGoyuvv/LKWjY/eu5sLLGZwv+7wW0ZPnp8aKA/7C/rfBbLW7zB5sPuYHQmx6DFyn34CFmWJASxwDMQQAAQxyJIiVpQCWCRGQpbAQCAYHW2Rqxen391cr3mK5eE0lShSHmWFe+uY/MWllBVrnmKKeK7u7vlYiYZXahqLxkQjTwv8LwAADBgJRoim82GWayt5AjDsg6XS+IEm9WaK0gut8frtdosYvlVNCBCHC9wvJDkOJ3fLwQhggD9zqCGmks/DjGswLAI4nWm9qXvIIQcQoh+lAJxL7Wh1rviEFosFoEl6Vh1pfVMlC6kH4vNMTA8UlBwdHleENd27d3f2egMNjY6LDWouyRYbAIEWbkoqURgkZTPYQIEu8MEj71JQQh53S4ynZHyhdLiXWYzixjG5jBRWeKq8nmKRiharB09OwEANy93Ilbs7evvaXbXSsdBdLidApuIx1c2kkGXdWV5uaiqgZYW80wazQbDMI2tLfTM7dTGeiab4xg4t7jC8nxjOFhr1z4jPk/R+BGDe4ZbOnpCHqveSpI6YEVXd0dzbH3tJ//y8rHh3jPvvJHD4pFjT9VDcTsYlgt19PvEN5anrr/2ljfsYk+N3ug/8PDQTmMUXsyPkdHYsaMvEA5b9QsBI8bh8o6M7HM6bNoGdS1t7SEVW2285lmaaHWHwy3Qrn2JGCK0e/ggK1ivT86MjV3gXY193Tv37arlht52QMRYnQ2d7VJTyHiN0ErcQILV/fiTT964NbE0PbEM0O5DjwyPjIT9xmslagEygsWxe/eQ36dRPO2BGKvgeMLi9DttejXjEMMHQs3f/ObXgn6NCo761dnsnqb+ATEi6VklhsFwK8OLNrcnlc67/cFIa2tjeUu7nzGIYT0NnQdGAnanu6aOQMhwvf277C7P/OKyrIJIx47mcMgq1Dh1tgRErN0VeOZLT0dawlXKNjYyGof2HTLEDkSc1x968qlalgG2uRp2uBp0GmE4PtjUHGyqpUhpOSDEOv0tu2r5XfwIq8PVvXOwe+dgrR35XSBirQ7P8eOPVO8StV47rlOnzj3q0Vinjll48Eg1n88rispxqizrLViHMVYxBgAgRSG6RaJUVSWEKBWa0tZqO0qllPX3jKIoGGMIIaowWbSkUqUoin4f9FOSWUEI3VcQrVZgjCmlZuifLQgh9338HhyNhUJRxcZoxm0J16kQ6g8GjDGhtBRd1W61HYQQrKqKbhmYu9FYuWDEVjSaQROtJAhYUrWstS8fQTCmlJqhf7bQHo0IIQAMU3/Z0k0xRkuG0kpNaWu1rTUADNbF0drcDAFQJQklvUBoQl0cCMAnh0BlKTgSgnmO06+BtzWAEQRBv2QbpRRhXKkpba22oyhJvBHaloqicDxPKMWEVKQZR0oKjqJoBoVCRVFYlhUEwVSacYqimE3BsTRIVD8h8P3gaGQYVDqRpL+LCSFb30b91rZewxWZ0tbq060Z81tK/1a5ZlxJE9kMAWBs3xqG+VyilN43WdlELtap8wXHyN1/rKoAQoSQ/jF6adrNclzNDiCVBo2Uskao4hKCKb3bN/qtVQVKVYwhhIYM4PVDKcWqihgGQlOcQaOUktLYEiGWZbWd+HsgRhrNbKayuZyCDVirVGQ5uhaVZaVWyhCU4Fwul0huGmCKEqmQTWdy+aKJFtl/G0qImkqlM9l8rT25i6oqyfhGviBhI5a+9UOwmkmnFhbmllei+UKRVEeyxJhvI1blXDr+0vMvNHUNHXz4eNin60BaOhEdv3r1pZ++8Td/+1+6OiO6pHY0QQmeuDp6aXy6AJ1/8SfP6TFFCM4kY7/+t58QR0f/4K7dfeYrq0ppsZC7dv7UhclYx47eJ08Yk96oB7mYm568+eL/feGZP/6rgb4er6MGx1M/DlaK5z84feHipWReURWppWtwZHjf7r4uwz/aBkRjLrO5ODd17uzZ37z+xlHk3H1Iz84vXZ6fuXJp7PT7Zz/48NqfZrLaNOMW52ayuUJT2w6HtbKxLiW4kM+OX730wbtv3pxNBtp2VXztjyEV88sLs+c/PPPqa6+1DD0Rrqki230hWI2tr169NPbu268tbFqtulNz9ZOKRydujr/7zqm33jm19/FvdXfX/tsYXbgzfmtyPS3v2TMoZZPjEzcEjulob3VZ9R6Q+B0M0YzbuHVz/OrNqUQyoSiyjo84BUS9c3ti/Mb40mo0l89hrYPe27fGx86f29gsVqwZh5VMKjZ6fnR6bi6VzciyLqXmzGZiZurOhUtX46mEJMmG5BsYiyoXVpcWzp0bXYmuZXJ5Ra19Ds3K0vyNGzcnp+dy+bSK1ftty33WTN24spHMhjoGnn3mmS9/+Us2WFyem16OZQy/kAHfxs10piCTZ771p4XknMepY1BBASBqfDPf3L6jo7v3+vj/rFT1vzT1pwAszc/dmV3ceSTf6OEhz5e2aMqxgBW5kE0rgu/Yw4fnltPrOS2/Y4v0ZkqhaOfwsUa3gt21Pax0f+Riviirgq/lG7ua3xytvdA4ACC6HncFmk48/aXkwiWLYIolpamJSU7wd+zoFnhe4ANtIe9iSpleiPa1GixUbUA0duzoaQy38qL1DZtFZ0YJYIRHT5zEUub2xHjl7Wk2nbx2fiwlSVeu31iNxj549835gH1H70BrS7PHYSnHBCfaGiPd3/l2a2x+bD0+DvRFY7i10xdszmTSr0XPpky5mmpxeAZ27W1u64jNvM9zOvQqjWP4wGEV0/mZyVfMsJYKAAAgnsmq3gbBYS39p8UuoE01l8oafiEDolEULaJogRAaUMEGIrfbjSXEcxoco7JUXFmcX88VN2LxZCq1vDCPM1Z3Q7ghGASgrGhEiBFEa8BiK6yL+ncjeEHkBZGBhKmhIsinwrCc1cZxHEovsibJHbM7nACAdTOlzlBKAfyofDqCEABajXmHAdFoeF1HrQYhL4hNkYi9qMzcvokJaIm0tQQcAa9HrEgcxLjfY5Ln+1OB0GSqWSbsNIfVkqZULtytzyMVZUqBxVbW+70iPk8qVdDh8h45+QQAIB1fnZ5bOv7YU70tnlppxtX53NDYGExvqPFoVFE6CFZiiSyBYiDoMfxCn88nNdwS6e7pdVp5kw4Q6/xe0Te4Wy5krl86t7S6NjNx5c5yAvC27hbjd4OM/DZ6fQ1Op5MzYvbIC5Zwc5Mo8NqGLf279nZJsstt0ZzBxHKi0+nyqgZsKCHEOFw+ghwW0eDtKaOAEPGC3etxO0yjI8zxfLCx2W61mGHGHe7q3zu0ceXajR/98w+JIoe7+oeHh9261dg+iaGacQ+ddPjC+r2EDNfQ2PLtb3+jwe/VFkwen17FJYc3PDDINBcMWGFneaF36EgReoNVGNsYAmJYd7Dz4H6Px1f73f8Sbq/vief+oL01bAbBOJvLv3vPXrvDuRSNQcR17NjZ0RGpxgzIyGg8+NDJUqVxnXYQwwdCLd/61tcFUazVm9HuaRpwBik14PIcJ/TuOgwoQuZIyP4kiOE8wc5DvnZommNHbo//yS9/m+UFBpmg0yAKt3WFmttkRYaI5bhqZY0bGY28YNSqNGQYxmq1GmRNCwgxyKDnAELIcTXOtHwgiGF5Ezz2WyCEREstH4BPwrCsxYgDPZ+CWd6FderUeXCsK4qCCdkSmNLDljiPgdYIISrG5Q8otbXaDkqpIb8FE0I0qPVACCAs1ZA1g0zbVt/W2pHfglJKSmV2TUNJxu6Tfy9LwZFgjAkpSpJOJ0oxAAAAsqxfGaGk+ybLckWzHW2ttoMQoqqq/p5RZJnjuEgkQra5T9vh9fncbrchd0c/mBCgqgAA88w/QUkl0Bz9swUlZEuV5uM8OBqzmQzLsoSQfN6Ao6ilR+2T+jyaTeFCoaJ6iNpabWuNEIUQ/eqAkizbbbYjR45UpIsDALA7HG1tbQAAQ+6OTkoH5BVFMVWFyrt33EzfRkApROiTMguwojdxnTp1qoeJRhR16nzBqUdjnTpmoR6NdeqYhXo01qljFurRWKeOWahHY506ZqEejXXqmIV6NNapYxb+Pzqu4/Pk5UgkAAAAAElFTkSuQmCC;" vertex="1" parent="1">
                    <mxGeometry x="74.5" y="50" width="303" height="427" as="geometry"/>
                </mxCell>
                <mxCell id="181" value="Infinity de Guzman - TEJ3M - Unit 4-19" style="text;html=1;align=center;verticalAlign=middle;resizable=0;points=[];autosize=1;strokeColor=none;fillColor=none;" vertex="1" parent="1">
                    <mxGeometry x="435" y="427" width="240" height="20" as="geometry"/>
                </mxCell>
            </root>
        </mxGraphModel>
    </diagram>
</mxfile>